<svg width="174" height="33" viewBox="0 0 174 33" fill="none" xmlns="http://www.w3.org/2000/svg">
<g clip-path="url(#clip0_179_5185)">
<path d="M34.0815 18.9184C34.0815 17.3478 34.3445 15.8823 34.8704 14.522C35.3963 13.1619 36.1324 11.9767 37.0791 10.967C38.0257 9.95737 39.1582 9.165 40.4764 8.59021C41.7947 8.01515 43.239 7.72749 44.8096 7.72749C46.0018 7.72749 47.0851 7.90297 48.0598 8.25338C49.0344 8.60407 49.9775 9.17912 50.8889 9.97828V8.14826H56.232V29.6889H50.8889V27.8586C49.9775 28.658 49.0344 29.2331 48.0598 29.5835C47.0851 29.9342 46.0018 30.1094 44.8096 30.1094C43.239 30.1094 41.7944 29.822 40.4764 29.2469C39.1582 28.6721 38.0257 27.8798 37.0791 26.8701C36.1324 25.8601 35.3963 24.6753 34.8704 23.3149C34.3445 21.9548 34.0815 20.4893 34.0815 18.9184ZM45.5039 25.0819C45.9247 25.0819 46.3664 25.0365 46.8292 24.9453C47.2918 24.854 47.7582 24.6997 48.2282 24.4824C48.6978 24.2651 49.1572 23.9742 49.6059 23.6094C50.0547 23.2448 50.4822 22.7961 50.8889 22.2631V15.5738C50.4822 15.0411 50.0547 14.5959 49.6059 14.2381C49.1569 13.8806 48.6978 13.5894 48.2279 13.3651C47.758 13.1407 47.2918 12.9829 46.829 12.8919C46.3664 12.8006 45.9244 12.7552 45.5039 12.755C44.6765 12.755 43.9015 12.9093 43.1795 13.2178C42.457 13.5264 41.8295 13.9578 41.2968 14.5117C40.7638 15.0655 40.3466 15.7177 40.0451 16.468C39.7436 17.2183 39.5928 18.0351 39.5928 18.9184C39.5928 19.8021 39.7436 20.6189 40.0451 21.3692C40.3466 22.1194 40.7638 22.7716 41.2968 23.3255C41.8297 23.8796 42.4572 24.3107 43.1792 24.6193C43.9018 24.9276 44.6765 25.0819 45.5039 25.0819ZM69.5884 13.0451C67.0568 13.0635 64.8573 14.8278 64.8573 17.4462V29.6889H59.5142V17.5934C59.5441 12.5496 63.912 7.7954 69.5118 7.72749H69.6612C75.2611 7.7954 79.629 12.5496 79.6589 17.5934V29.6889H74.3158V17.4462C74.3158 14.8278 72.1166 13.0635 69.5846 13.0451M82.1881 18.9184C82.1881 17.3478 82.4511 15.8823 82.9769 14.522C83.5028 13.1619 84.2393 11.9767 85.1856 10.967C86.1323 9.95737 87.2648 9.165 88.583 8.59021C89.9013 8.01515 91.3456 7.72749 92.9165 7.72749C94.1084 7.72749 95.1952 7.90297 96.1769 8.25338C97.1586 8.60407 98.0982 9.17206 98.9957 9.95737V1.69033H104.339V29.6889H98.9957V27.8798C98.0982 28.6789 97.1586 29.2505 96.1769 29.5941C95.1952 29.9377 94.1084 30.1094 92.9165 30.1094C91.3456 30.1094 89.9013 29.822 88.583 29.2469C87.2648 28.6721 86.1323 27.8798 85.1856 26.8701C84.2393 25.8604 83.5028 24.6753 82.9772 23.3149C82.4511 21.9548 82.1881 20.4893 82.1881 18.9184ZM93.6105 25.0819C94.0313 25.0819 94.4729 25.0365 94.9358 24.9453C95.3984 24.854 95.8648 24.6997 96.3347 24.4824C96.8044 24.2651 97.2638 23.9742 97.7125 23.6094C98.1612 23.2448 98.5888 22.7961 98.9957 22.2631V15.5738C98.5888 15.0411 98.1612 14.5959 97.7125 14.2381C97.2638 13.8806 96.8044 13.5894 96.3347 13.3651C95.8648 13.1407 95.3984 12.9829 94.9358 12.8919C94.4729 12.8006 94.0313 12.7552 93.6105 12.755C92.7831 12.755 92.0084 12.9093 91.2861 13.2178C90.5638 13.5264 89.936 13.9578 89.4036 14.5117C88.8704 15.0655 88.4532 15.7177 88.1516 16.468C87.8501 17.2183 87.6994 18.0351 87.6996 18.9184C87.6996 19.8021 87.8501 20.6189 88.1516 21.3692C88.4532 22.1194 88.8704 22.7716 89.4034 23.3255C89.9363 23.8796 90.5638 24.3107 91.2861 24.6193C92.0084 24.9276 92.7831 25.0819 93.6105 25.0819ZM129.36 25.0819C130.159 25.0819 130.913 24.9311 131.621 24.6296C132.319 24.3357 132.948 23.9027 133.473 23.357C133.998 22.8102 134.412 22.1615 134.714 21.4113C135.015 20.661 135.166 19.8303 135.166 18.9184C135.166 18.0209 135.012 17.1971 134.703 16.4468C134.395 15.6965 133.974 15.0479 133.441 14.5011C132.913 13.9575 132.284 13.5216 131.59 13.2178C130.889 12.9093 130.145 12.7552 129.36 12.755C128.561 12.755 127.807 12.9093 127.099 13.2178C126.402 13.5182 125.773 13.9544 125.248 14.5011C124.722 15.0479 124.305 15.6965 123.996 16.4468C123.687 17.1971 123.533 18.0209 123.533 18.9187C123.533 19.8301 123.684 20.661 123.985 21.4113C124.287 22.1615 124.701 22.8102 125.227 23.357C125.751 23.9027 126.381 24.3357 127.078 24.6296C127.786 24.9311 128.547 25.0819 129.36 25.0819ZM129.36 30.1094C127.803 30.1094 126.338 29.8291 124.963 29.2681C123.589 28.7072 122.387 27.9254 121.356 26.9225C120.325 25.9199 119.512 24.7348 118.916 23.3676C118.32 22.0002 118.022 20.5173 118.022 18.9184C118.022 17.3619 118.32 15.9033 118.916 14.5432C119.512 13.1828 120.322 11.9979 121.346 10.9882C122.369 9.97828 123.572 9.18266 124.953 8.60054C126.334 8.01869 127.803 7.72749 129.36 7.72749C130.916 7.72749 132.382 8.01869 133.756 8.60054C135.131 9.18266 136.33 9.97828 137.353 10.9882C138.378 11.9979 139.187 13.1831 139.783 14.5432C140.379 15.9035 140.677 17.3619 140.677 18.9184C140.677 20.5173 140.379 22.0002 139.783 23.3676C139.187 24.7348 138.374 25.9199 137.343 26.9225C136.312 27.9254 135.113 28.7072 133.746 29.2681C132.379 29.8291 130.917 30.1094 129.36 30.1094ZM145.743 6.46166C145.31 6.46166 144.901 6.37718 144.515 6.20795C144.137 6.04363 143.792 5.80957 143.501 5.51799C143.209 5.22608 142.975 4.8819 142.811 4.50342C142.641 4.11638 142.555 3.69812 142.557 3.27561C142.557 2.84289 142.641 2.43028 142.811 2.03803C142.973 1.6556 143.207 1.3078 143.501 1.01341C143.793 0.721832 144.137 0.487775 144.515 0.323451C144.902 0.154033 145.32 0.0676061 145.743 0.0697407C146.176 0.0697407 146.588 0.15422 146.981 0.323451C147.363 0.485971 147.711 0.720169 148.005 1.01341C148.298 1.30781 148.533 1.6556 148.695 2.03803C148.864 2.43028 148.949 2.84289 148.949 3.27589C148.949 3.7086 148.864 4.11796 148.695 4.50369C148.531 4.88207 148.297 5.22616 148.005 5.51799C147.711 5.81126 147.363 6.04547 146.981 6.20795C146.59 6.37679 146.168 6.46316 145.743 6.46166ZM143.071 8.14826H148.414V29.6889H143.071V8.14826ZM150.871 18.9184C150.871 17.3478 151.134 15.8823 151.66 14.522C152.185 13.1619 152.922 11.9767 153.868 10.967C154.815 9.95737 155.947 9.165 157.266 8.59021C158.584 8.01515 160.028 7.72749 161.599 7.72749C162.791 7.72749 163.878 7.90297 164.859 8.25338C165.841 8.60407 166.781 9.17206 167.678 9.95737V1.69033H173.021V29.6889H167.678V27.8798C166.781 28.6789 165.841 29.2505 164.859 29.5941C163.878 29.9377 162.791 30.1094 161.599 30.1094C160.028 30.1094 158.584 29.822 157.266 29.2469C155.947 28.6721 154.815 27.8798 153.868 26.8701C152.922 25.8604 152.185 24.6753 151.66 23.3149C151.134 21.9548 150.871 20.4893 150.871 18.9184ZM162.293 25.0819C162.714 25.0819 163.156 25.0365 163.618 24.9453C164.081 24.854 164.547 24.6997 165.017 24.4824C165.487 24.2651 165.946 23.9742 166.395 23.6094C166.844 23.2448 167.271 22.7961 167.678 22.2631V15.5738C167.271 15.0411 166.844 14.5959 166.395 14.2381C165.946 13.8806 165.487 13.5894 165.017 13.3651C164.547 13.1407 164.081 12.9829 163.618 12.8919C163.156 12.8006 162.714 12.7552 162.293 12.755C161.466 12.755 160.691 12.9093 159.969 13.2178C159.246 13.5264 158.619 13.9578 158.086 14.5117C157.553 15.0655 157.136 15.7177 156.834 16.468C156.533 17.2183 156.382 18.0351 156.382 18.9184C156.382 19.8021 156.533 20.6189 156.834 21.3692C157.136 22.1194 157.553 22.7716 158.086 23.3255C158.619 23.8796 159.246 24.3107 159.968 24.6193C160.691 24.9276 161.466 25.0819 162.293 25.0819ZM117.513 12.9804C113.932 12.9804 112.353 14.8278 112.353 17.4462V29.6889H107.01V17.5934C107.04 12.5496 109.953 7.59113 117.513 7.59113" fill="#8A8A8A"/>
</g>
<g clip-path="url(#clip1_179_5185)">
<path d="M9.12174 20.1992C10.1404 20.1992 10.9663 21.0418 10.9663 22.0812V30.1547C10.9663 31.1941 10.1404 32.0366 9.12174 32.0366C8.10318 32.0366 7.27734 31.1941 7.27734 30.1547V22.0812C7.27734 21.0419 8.10318 20.1993 9.12174 20.1993V20.1992Z" fill="#8A8A8A"/>
<path d="M4.91081 10.4927C4.90472 10.564 4.89941 10.6362 4.89941 10.7091V22.9412C4.89941 24.2567 5.91992 25.3165 7.18677 25.3165H19.3779C20.6449 25.3165 21.6654 24.2566 21.6654 22.9412V10.7091C21.6654 10.6362 21.6628 10.5638 21.6569 10.4927H4.91081Z" fill="#8A8A8A"/>
<path d="M17.4433 20.1992C18.4619 20.1992 19.2878 21.0418 19.2878 22.0812V30.1547C19.2878 31.1941 18.4619 32.0366 17.4433 32.0366C16.4247 32.0366 15.5989 31.1941 15.5989 30.1547V22.0812C15.5989 21.042 16.4247 20.1993 17.4433 20.1993V20.1992ZM1.93583 11.5813C2.95439 11.5813 3.78023 12.4239 3.78023 13.4633V21.5368C3.78023 22.5762 2.95439 23.4188 1.93583 23.4188C0.917141 23.4188 0.0913086 22.5762 0.0913086 21.5369V13.4634C0.0911791 12.424 0.917011 11.5813 1.93583 11.5813ZM24.6293 11.5813C25.6478 11.5813 26.4737 12.4239 26.4737 13.4633V21.5368C26.4737 22.5762 25.6478 23.4188 24.6293 23.4188C23.6106 23.4188 22.7847 22.5762 22.7847 21.5369V13.4634C22.7847 12.424 23.6106 11.5813 24.6293 11.5813ZM4.96471 9.68916C5.016 5.93194 8.22996 2.85136 12.3555 2.44537H14.2092C18.335 2.85149 21.5487 5.9322 21.6 9.68916H4.96471Z" fill="#8A8A8A"/>
<path d="M5.60645 2.08276L7.55213 5.52149M20.9591 2.08276L19.0133 5.52149" stroke="#8A8A8A" stroke-width="0.421251" stroke-linecap="round" stroke-linejoin="round"/>
<path d="M10.8045 6.32199C10.8061 6.84719 10.3801 7.27419 9.85291 7.27564C9.32601 7.27696 8.89755 6.85247 8.896 6.32728V6.32199C8.89457 5.79667 9.32057 5.3698 9.8476 5.36835C10.3745 5.3669 10.803 5.79125 10.8045 6.31671V6.32199ZM17.9277 6.32199C17.9293 6.84719 17.5033 7.27419 16.9761 7.27564C16.4492 7.27696 16.0208 6.85247 16.0192 6.32728V6.32199C16.0178 5.79667 16.4438 5.3698 16.9708 5.36835C17.4977 5.3669 17.9261 5.79125 17.9277 6.31671V6.32199Z" fill="black"/>
</g>
<defs>
<clipPath id="clip0_179_5185">
<rect width="139.079" height="30.1523" fill="white" transform="translate(34.0122)"/>
</clipPath>
<clipPath id="clip1_179_5185">
<rect width="26.3832" height="30.1523" fill="white" transform="translate(0.0908203 1.88452)"/>
</clipPath>
</defs>
</svg>
