<svg width="26" height="32" viewBox="0 0 26 32" fill="none" xmlns="http://www.w3.org/2000/svg">
<path d="M8.8997 19.75C9.90362 19.75 10.7175 20.6221 10.7175 21.6978V30.0532C10.7175 31.1289 9.90362 32.0008 8.8997 32.0008C7.8959 32.0008 7.08203 31.1289 7.08203 30.0532V21.6978C7.08203 20.6222 7.8959 19.7501 8.8997 19.7501V19.75Z" fill="#8A8A8A"/>
<path d="M4.74756 9.70312C4.74156 9.77698 4.73633 9.85166 4.73633 9.92716V22.5864C4.73633 23.9478 5.74204 25.0446 6.99054 25.0446H19.005C20.2536 25.0446 21.2593 23.9477 21.2593 22.5864V9.92716C21.2593 9.85166 21.2568 9.77671 21.2509 9.70312H4.74756Z" fill="#8A8A8A"/>
<path d="M17.1005 19.7489C18.1044 19.7489 18.9183 20.6209 18.9183 21.6966V30.0521C18.9183 31.1278 18.1044 31.9997 17.1005 31.9997C16.0967 31.9997 15.2828 31.1278 15.2828 30.0521V21.6966C15.2828 20.6211 16.0967 19.749 17.1005 19.749V19.7489ZM1.81779 10.8299C2.82159 10.8299 3.63546 11.702 3.63546 12.7777V21.1331C3.63546 22.2088 2.82159 23.0809 1.81779 23.0809C0.813864 23.0809 1.50127e-08 22.2088 1.50127e-08 21.1333V12.7778C-0.00012763 11.7021 0.813736 10.8299 1.81779 10.8299ZM24.1823 10.8299C25.1861 10.8299 26 11.702 26 12.7777V21.1331C26 22.2088 25.1861 23.0809 24.1823 23.0809C23.1784 23.0809 22.3645 22.2088 22.3645 21.1333V12.7778C22.3645 11.7021 23.1784 10.8299 24.1823 10.8299ZM4.80277 8.87177C4.85332 4.98333 8.0207 1.79516 12.0864 1.375H13.9133C17.9793 1.7953 21.1464 4.9836 21.197 8.87177H4.80277Z" fill="#8A8A8A"/>
<path d="M5.43555 1L7.35303 4.55882M20.5657 1L18.6481 4.55882" stroke="#8A8A8A" stroke-width="0.525958" stroke-linecap="round" stroke-linejoin="round"/>
<path d="M10.5566 5.38539C10.5582 5.92892 10.1383 6.37084 9.61883 6.37234C9.09957 6.37371 8.67732 5.93439 8.67578 5.39086V5.38539C8.67438 4.84172 9.0942 4.39995 9.61359 4.39844C10.1329 4.39694 10.5551 4.83611 10.5566 5.37992V5.38539ZM17.5766 5.38539C17.5781 5.92892 17.1583 6.37084 16.6388 6.37234C16.1195 6.37371 15.6973 5.93439 15.6957 5.39086V5.38539C15.6943 4.84172 16.1142 4.39995 16.6336 4.39844C17.1528 4.39694 17.5751 4.83611 17.5766 5.37992V5.38539Z" fill="#141315"/>
</svg>
