<svg width="95" height="32" viewBox="0 0 95 32" fill="none" xmlns="http://www.w3.org/2000/svg">
<g clip-path="url(#clip0_179_5182)">
<path d="M21.9551 17.0036C21.9163 12.9543 25.2791 11.0089 25.4304 10.9162C23.5376 8.164 20.5975 7.78571 19.5503 7.74325C17.0485 7.48849 14.667 9.21008 13.3948 9.21008C12.1226 9.21008 10.1638 7.77799 8.08874 7.82045C5.35815 7.85905 2.84088 9.39922 1.43291 11.8311C-1.39853 16.7179 0.711478 23.9749 3.47698 27.9469C4.83064 29.8885 6.43642 32.0772 8.55418 31.9961C10.5944 31.915 11.3624 30.6837 13.8214 30.6837C16.2805 30.6837 16.9748 31.9961 19.1275 31.9575C21.3189 31.915 22.7075 29.9734 24.0495 28.0241C25.5933 25.7659 26.2332 23.585 26.272 23.4692C26.2216 23.4499 22.0016 21.8402 21.9551 17.0036Z" fill="#8A8A8A"/>
<path d="M17.9097 5.11061C19.0345 3.75573 19.7909 1.87587 19.5853 -0.00012207C17.9679 0.0654992 16.0092 1.07298 14.8494 2.42786C13.8099 3.62449 12.8984 5.53908 13.1467 7.37648C14.9425 7.51544 16.7888 6.46164 17.9097 5.11061ZM36.1395 20.9832L34.2778 26.5996H31.8846L37.978 8.75066H40.7707L46.8874 26.5996H44.4128L42.4967 20.9832H36.1395ZM42.0196 19.1806L40.2665 14.0428C39.867 12.8771 39.6032 11.8194 39.3356 10.7849H39.2852C39.0175 11.8426 38.7266 12.9273 38.3814 14.0158L36.6283 19.1767L42.0196 19.1806ZM48.7026 17.9647C48.7026 16.3241 48.6522 14.9963 48.594 13.7803H50.6963L50.8049 15.9806H50.8553C51.8133 14.4172 53.3299 13.4908 55.4321 13.4908C58.5467 13.4908 60.8856 16.1118 60.8856 20.0066C60.8856 24.6156 58.0658 26.8891 55.0326 26.8891C53.3299 26.8891 51.8405 26.148 51.0686 24.878H51.0182V31.8416H48.7026V17.9647ZM51.0143 21.3808C51.0143 21.7282 51.0647 22.0409 51.1229 22.3343C51.5496 23.9478 52.9575 25.0633 54.637 25.0633C57.1116 25.0633 58.5506 23.0522 58.5506 20.1109C58.5506 17.54 57.1931 15.3475 54.7185 15.3475C53.1243 15.3475 51.6349 16.4862 51.1772 18.2349C51.0958 18.5244 51.0182 18.8718 51.0182 19.1883L51.0143 21.3808ZM63.3059 17.9647C63.3059 16.3241 63.2555 14.9963 63.1973 13.7803H65.2995L65.4081 15.9806H65.4586C66.4166 14.4172 67.9332 13.4908 70.0354 13.4908C73.15 13.4908 75.4888 16.1118 75.4888 20.0066C75.4888 24.6156 72.669 26.8891 69.6359 26.8891C67.9332 26.8891 66.4437 26.148 65.6719 24.878H65.6215V31.8416H63.3059V17.9647ZM65.6215 21.3808C65.6215 21.7282 65.6719 22.0409 65.7301 22.3343C66.1567 23.9478 67.5647 25.0633 69.2442 25.0633C71.7188 25.0633 73.1577 23.0522 73.1577 20.1109C73.1577 17.54 71.8002 15.3475 69.3256 15.3475C67.7315 15.3475 66.242 16.4862 65.7844 18.2349C65.7029 18.5244 65.6253 18.8718 65.6253 19.1883L65.6215 21.3808ZM77.913 7.79722H80.2557V26.5958H77.913V7.79722ZM84.9645 20.6127C85.0149 23.7625 87.0396 25.0633 89.3784 25.0633C91.054 25.0633 92.0663 24.7738 92.9429 24.4033L93.3424 26.0708C92.5202 26.4414 91.1083 26.866 89.0604 26.866C85.0964 26.866 82.7265 24.272 82.7265 20.4042C82.7265 16.5364 85.0149 13.4908 88.7656 13.4908C92.9701 13.4908 94.0871 17.1695 94.0871 19.528C94.0871 20.0066 94.0367 20.3733 94.0057 20.6127H84.9645ZM91.8298 18.9451C91.8569 17.4628 91.2169 15.1584 88.5833 15.1584C86.2134 15.1584 85.1778 17.3316 84.9916 18.9451H91.8298Z" fill="#8A8A8A"/>
</g>
<defs>
<clipPath id="clip0_179_5182">
<rect width="94" height="32" fill="white" transform="translate(0.0908203)"/>
</clipPath>
</defs>
</svg>
