<svg width="26" height="29" viewBox="0 0 26 29" fill="none" xmlns="http://www.w3.org/2000/svg">
<path d="M19.1365 0C19.2108 0 19.285 0 19.3634 0C19.5455 2.04514 18.687 3.57327 17.6437 4.67988C16.62 5.77886 15.2182 6.84473 12.9509 6.683C12.7997 4.66715 13.6595 3.25236 14.7014 2.14829C15.6677 1.11935 17.4392 0.20375 19.1365 0Z" fill="#8A8A8A"/>
<path d="M26 21.2859C26 21.3063 26 21.3241 26 21.3432C25.3628 23.098 24.4539 24.6019 23.3448 25.9976C22.3323 27.2647 21.0916 28.9698 18.8761 28.9698C16.9618 28.9698 15.6902 27.8505 13.7282 27.8199C11.6528 27.7893 10.5115 28.7559 8.61392 28.9991C8.39685 28.9991 8.17979 28.9991 7.96693 28.9991C6.57352 28.8157 5.44899 27.8123 4.62975 26.9081C2.21405 24.2364 0.347302 20.7854 0 16.3691C0 15.9362 0 15.5045 0 15.0715C0.147043 11.9108 1.83594 9.34105 4.08079 8.09562C5.26554 7.43344 6.89421 6.8693 8.70774 7.12144C9.48497 7.23096 10.279 7.47291 10.975 7.71232C11.6346 7.94281 12.4594 8.35159 13.2409 8.32994C13.7702 8.31593 14.2968 8.06506 14.8303 7.88805C16.3932 7.37486 17.9252 6.78653 19.9446 7.06287C22.3715 7.39651 24.094 8.37705 25.1584 9.8899C23.1054 11.078 21.4823 12.8685 21.7596 15.926C22.006 18.7034 23.7818 20.3283 26 21.2859Z" fill="#8A8A8A"/>
</svg>
