<svg width="187" height="40" viewBox="0 0 187 40" fill="none" xmlns="http://www.w3.org/2000/svg">
<g clip-path="url(#clip0_136_2144)">
<path d="M38.6614 24.725C36.0752 35.1822 25.5416 41.5216 15.1696 38.9208C4.79769 36.3201 -1.53324 25.7273 1.05301 15.2972C3.63926 4.8399 14.1729 -1.49947 24.5448 1.1013C34.9437 3.67497 41.2477 14.2677 38.6614 24.725Z" fill="#A6A6A6"/>
<path d="M28.3973 17.2208C28.7745 14.6201 26.8079 13.2384 24.1408 12.2902L25.0029 8.76834L22.8746 8.22651L22.0395 11.64C21.4737 11.5046 20.908 11.3691 20.3422 11.2336L21.2043 7.79305L19.0761 7.25122L18.214 10.7731C17.756 10.6647 17.298 10.5564 16.867 10.448L13.9305 9.71653L13.3648 11.9922C13.3648 11.9922 14.9542 12.3444 14.9003 12.3715C15.7624 12.5882 15.9241 13.1571 15.8971 13.6177L14.9003 17.6272C14.9542 17.6543 15.035 17.6543 15.1159 17.7085C15.035 17.6814 14.9812 17.6814 14.9003 17.6543L13.4995 23.2622C13.3917 23.5331 13.1223 23.9124 12.5296 23.7769C12.5566 23.804 10.994 23.3977 10.994 23.3977L9.94336 25.8359L12.7182 26.5403C13.2301 26.6757 13.7419 26.8112 14.2268 26.9466L13.3378 30.4956L15.4661 31.0374L16.3282 27.5156C16.9209 27.6781 17.4597 27.8136 18.0254 27.949L17.1633 31.4438L19.2916 31.9856L20.1806 28.4367C23.8175 29.1139 26.5385 28.843 27.6969 25.5379C28.6129 22.8829 27.643 21.3387 25.7303 20.3363C27.0773 20.0383 28.1279 19.1172 28.3973 17.2208ZM23.5481 24.075C22.9016 26.7299 18.4295 25.2941 17.0017 24.9419L18.1601 20.228C19.6149 20.5802 24.2216 21.3116 23.5481 24.075ZM24.1947 17.1937C23.602 19.6049 19.8843 18.3858 18.6989 18.0878L19.7496 13.8073C20.9619 14.1053 24.8412 14.6743 24.1947 17.1937Z" fill="black"/>
<path d="M57.3038 12.2901C58.8664 12.2901 60.2403 12.561 61.3718 13.1299C62.5302 13.6989 63.4731 14.4574 64.2275 15.4056C64.9818 16.3538 65.5206 17.4917 65.8977 18.7649C66.248 20.0382 66.4365 21.4199 66.4365 22.9099C66.4365 25.1856 66.0324 27.3258 65.1973 29.3577C64.3622 31.3895 63.2307 33.1505 61.7759 34.6405C60.3481 36.1305 58.6239 37.3225 56.6842 38.1894C54.7176 39.0564 52.5893 39.4898 50.2994 39.4898C50.0031 39.4898 49.4912 39.4898 48.7369 39.4627C48.0095 39.4356 47.1474 39.3815 46.2045 39.246C45.2616 39.1105 44.2379 38.9209 43.1872 38.65C42.1365 38.3791 41.1128 38.0269 40.1699 37.5663L48.6561 1.69739L56.2532 0.505371L53.2089 13.2383C53.8555 12.9403 54.5021 12.7236 55.1756 12.561C55.8491 12.3985 56.5495 12.2901 57.3038 12.2901ZM50.919 33.4214C52.0775 33.4214 53.1551 33.1505 54.1518 32.5815C55.1756 32.0126 56.0377 31.2812 56.792 30.333C57.5194 29.3848 58.112 28.3282 58.5431 27.1362C58.9741 25.9442 59.1896 24.725 59.1896 23.4247C59.1896 21.8534 58.9202 20.6072 58.4084 19.7131C57.8965 18.8191 56.9267 18.3857 55.5258 18.3857C55.0678 18.3857 54.4751 18.4669 53.7477 18.6295C53.0204 18.792 52.3469 19.1442 51.7542 19.659L48.5214 33.1775C48.7099 33.2046 48.8985 33.2317 49.0332 33.2859C49.1679 33.313 49.3296 33.3401 49.4912 33.3672C49.6528 33.3943 49.8414 33.3943 50.0839 33.3943C50.3263 33.3943 50.5688 33.4214 50.919 33.4214Z" fill="#A6A6A6"/>
<path d="M74.3031 38.8125H67.0293L73.1716 12.8589H80.4724L74.3031 38.8125ZM77.8592 9.68925C76.8355 9.68925 75.9195 9.39124 75.1113 8.76814C74.2762 8.17213 73.8721 7.22393 73.8721 5.97773C73.8721 5.30045 74.0068 4.65025 74.2762 4.02715C74.5456 3.43114 74.9228 2.88932 75.3807 2.45585C75.8387 2.02239 76.3775 1.6702 76.9702 1.39929C77.5898 1.12838 78.2364 0.99292 78.9099 0.99292C79.9336 0.99292 80.8496 1.29093 81.6578 1.91403C82.466 2.53713 82.897 3.45823 82.897 4.70444C82.897 5.40881 82.7623 6.059 82.4929 6.65501C82.2235 7.25102 81.8464 7.79285 81.3884 8.22631C80.9304 8.65977 80.3916 9.01196 79.7989 9.28288C79.1793 9.55379 78.5327 9.68925 77.8592 9.68925Z" fill="#A6A6A6"/>
<path d="M86.8571 6.38416L94.4543 5.19214L92.5954 12.8319H100.731L99.2496 18.8462H91.1676L89.0124 27.9218C88.8238 28.6803 88.6891 29.3847 88.6621 30.0349C88.6352 30.6851 88.716 31.254 88.9046 31.7417C89.0932 32.2293 89.4434 32.5815 89.9553 32.8524C90.4671 33.1233 91.1945 33.2588 92.1374 33.2588C92.9187 33.2588 93.673 33.1775 94.4273 33.0421C95.1547 32.9066 95.909 32.6899 96.6634 32.419L97.2022 38.054C96.2323 38.4061 95.1547 38.7312 94.0232 39.0022C92.8648 39.2731 91.5178 39.4085 89.9553 39.4085C87.6923 39.4085 85.9412 39.0834 84.7019 38.4061C83.4627 37.7289 82.5737 36.8078 82.0618 35.6428C81.5499 34.4779 81.3075 33.1233 81.3883 31.6333C81.4422 30.1162 81.6846 28.5178 82.0618 26.8381L86.8571 6.38416Z" fill="#A6A6A6"/>
<path d="M100.435 28.4365C100.435 26.1879 100.785 24.1018 101.513 22.1242C102.24 20.1465 103.264 18.4127 104.611 16.9497C105.958 15.4868 107.574 14.2948 109.487 13.4549C111.4 12.6151 113.528 12.1816 115.899 12.1816C117.38 12.1816 118.7 12.3171 119.859 12.6151C121.017 12.886 122.068 13.2653 123.038 13.7258L120.532 19.4421C119.886 19.1712 119.185 18.9274 118.485 18.7378C117.785 18.521 116.922 18.4127 115.899 18.4127C113.474 18.4127 111.561 19.2525 110.134 20.9321C108.706 22.6118 108.005 24.8604 108.005 27.705C108.005 29.3847 108.355 30.7392 109.083 31.7687C109.81 32.7982 111.13 33.3129 113.07 33.3129C114.013 33.3129 114.929 33.2045 115.818 33.0149C116.707 32.8253 117.488 32.5814 118.162 32.2834L118.7 38.1623C117.784 38.5144 116.761 38.8395 115.656 39.1375C114.552 39.4085 113.205 39.5439 111.669 39.5439C109.649 39.5439 107.924 39.2459 106.524 38.6499C105.123 38.0539 103.964 37.2682 103.048 36.2659C102.132 35.2635 101.459 34.0715 101.055 32.744C100.624 31.3352 100.435 29.9265 100.435 28.4365Z" fill="#A6A6A6"/>
<path d="M132.682 39.4897C130.958 39.4897 129.45 39.2188 128.157 38.7041C126.89 38.1893 125.84 37.4308 125.005 36.4826C124.169 35.5344 123.55 34.3965 123.119 33.0962C122.688 31.7958 122.472 30.3599 122.472 28.7886C122.472 26.811 122.795 24.8333 123.415 22.8556C124.062 20.8779 125.005 19.117 126.244 17.5186C127.483 15.9473 129.019 14.6469 130.797 13.6446C132.602 12.6422 134.649 12.1274 136.966 12.1274C138.663 12.1274 140.172 12.3984 141.465 12.9131C142.758 13.4278 143.809 14.1864 144.644 15.1346C145.479 16.0828 146.099 17.2206 146.53 18.521C146.961 19.8214 147.176 21.2572 147.176 22.8285C147.176 24.8062 146.853 26.7839 146.233 28.7615C145.614 30.7392 144.698 32.5001 143.485 34.0985C142.273 35.6698 140.765 36.9702 138.96 37.9726C137.181 39.0021 135.08 39.4897 132.682 39.4897ZM136.319 18.3855C135.242 18.3855 134.299 18.7106 133.464 19.3337C132.656 19.9568 131.955 20.7425 131.416 21.6907C130.851 22.6389 130.446 23.6955 130.15 24.8333C129.881 25.9711 129.746 27.0548 129.746 28.0572C129.746 29.7097 130.015 30.983 130.527 31.9041C131.066 32.8252 132.009 33.2858 133.383 33.2858C134.461 33.2858 135.403 32.9607 136.239 32.3376C137.047 31.7145 137.747 30.9288 138.286 29.9806C138.852 29.0324 139.256 27.9759 139.552 26.838C139.822 25.7002 139.956 24.6166 139.956 23.6142C139.956 21.9616 139.687 20.6883 139.175 19.7672C138.636 18.8461 137.693 18.3855 136.319 18.3855Z" fill="#A6A6A6"/>
<path d="M155.123 38.8125H147.85L153.992 12.8589H161.32L155.123 38.8125ZM158.653 9.68925C157.629 9.68925 156.713 9.39124 155.905 8.76814C155.096 8.17213 154.665 7.22393 154.665 5.97773C154.665 5.30045 154.8 4.65025 155.096 4.02715C155.366 3.43114 155.743 2.88932 156.201 2.45585C156.659 2.02239 157.198 1.6702 157.791 1.39929C158.383 1.12838 159.03 0.99292 159.73 0.99292C160.754 0.99292 161.67 1.29093 162.478 1.91403C163.286 2.53713 163.717 3.45823 163.717 4.70444C163.717 5.40881 163.583 6.059 163.286 6.65501C163.017 7.25102 162.64 7.79285 162.182 8.22631C161.724 8.65977 161.185 9.01196 160.592 9.28288C160 9.55379 159.353 9.68925 158.653 9.68925Z" fill="#A6A6A6"/>
<path d="M166.546 14.0239C167.085 13.8613 167.705 13.6717 168.378 13.455C169.052 13.2382 169.806 13.0486 170.641 12.8589C171.476 12.6693 172.419 12.5338 173.443 12.3984C174.467 12.29 175.652 12.2358 176.945 12.2358C180.771 12.2358 183.411 13.3466 184.865 15.5952C186.32 17.8438 186.563 20.9051 185.62 24.7791L182.279 38.7854H174.978L178.211 25.0771C178.4 24.2102 178.561 23.3975 178.669 22.5847C178.777 21.772 178.777 21.0676 178.642 20.4716C178.508 19.8756 178.211 19.3609 177.726 18.9816C177.241 18.6023 176.514 18.4127 175.544 18.4127C174.601 18.4127 173.631 18.521 172.662 18.7107L167.893 38.7854H160.565C160.619 38.8125 166.546 14.0239 166.546 14.0239Z" fill="#A6A6A6"/>
</g>
<defs>
<clipPath id="clip0_136_2144">
<rect width="185.714" height="39" fill="white" transform="translate(0.473633 0.5)"/>
</clipPath>
</defs>
</svg>
