<svg width="36" height="36" viewBox="0 0 36 36" fill="none" xmlns="http://www.w3.org/2000/svg">
<path d="M34.8002 21.4144C34.4129 20.9399 33.4856 20.3181 31.6529 21.5071C29.7656 22.6635 27.6493 23.8962 26.7711 24.3271C26.1165 22.9362 24.9165 22.7017 24.3056 22.7999C19.1347 23.6999 17.1602 22.1453 17.1547 22.1453C17.0347 22.0362 14.1984 19.5435 11.0293 21.2453C9.322 22.1617 8.21472 22.4017 7.64745 22.4617V21.6217C7.64745 21.3217 7.402 21.0762 7.102 21.0762H4.23291C3.9329 21.0762 3.68745 21.3217 3.68745 21.6217V22.2217H1.36381C1.06381 22.2217 0.818359 22.4671 0.818359 22.7671C0.818359 23.0671 1.06381 23.3126 1.36381 23.3126H3.68745V29.1053H1.36381C1.06381 29.1053 0.818359 29.3508 0.818359 29.6508C0.818359 29.9508 1.06381 30.1962 1.36381 30.1962H3.68745V30.7962C3.68745 31.0962 3.9329 31.3417 4.23291 31.3417H7.102C7.402 31.3417 7.64745 31.0962 7.64745 30.7962V30.7253H8.40563C8.43836 30.7253 11.4929 30.8344 14.4984 32.1217C16.342 32.9126 18.3111 33.3271 19.9093 33.3271C20.9947 33.3271 21.9056 33.1362 22.4947 32.7435C22.8547 32.5199 31.3147 27.2071 34.6311 23.8362C35.2965 23.1599 35.3729 22.1181 34.8002 21.4144ZM6.55109 30.2508H4.77836V29.6508V22.7671V22.1671H6.55654V30.2508H6.55109ZM33.8511 23.0726C30.622 26.3508 21.9984 31.7671 21.9002 31.8271C20.8965 32.4926 17.9456 32.4162 14.9238 31.1181C11.722 29.749 8.56927 29.6399 8.41654 29.6344H7.642V23.5581C8.34563 23.5035 9.622 23.2362 11.542 22.2053C14.0293 20.869 16.3311 22.8708 16.4347 22.9635C16.5275 23.0399 18.7474 24.8726 24.4856 23.8744C24.5238 23.869 25.4511 23.7435 25.9038 25.0799C25.8656 25.4071 25.5547 26.7926 23.0784 26.9071H15.9547C15.6547 26.9071 15.4093 27.1526 15.4093 27.4526C15.4093 27.7526 15.6547 27.9981 15.9547 27.9981H23.1056C26.0347 27.8671 26.7602 26.2253 26.9402 25.4344C27.6547 25.1562 29.0893 24.3599 32.2365 22.429C32.8311 22.0417 33.6111 21.6762 33.9547 22.1017C34.1674 22.369 34.1238 22.7944 33.8511 23.0726Z" fill="#FF0000"/>
<path d="M10.8382 19.8164C11.1055 19.68 11.2146 19.3527 11.0782 19.0855C10.3964 17.7491 10.0146 16.3255 9.93824 14.8527H12.5892C12.8073 15.78 13.5601 16.4945 14.5092 16.6582C14.6019 17.5582 14.7437 18.4091 14.9292 19.1945C14.9892 19.4455 15.2128 19.6145 15.4582 19.6145C15.5019 19.6145 15.5455 19.6091 15.5837 19.5982C15.8782 19.5273 16.0582 19.2327 15.9873 18.9436C15.8128 18.2182 15.6819 17.4273 15.5946 16.5927C16.4128 16.3473 17.0455 15.6873 17.2419 14.8527H19.9146V21.1309C19.9146 21.4309 20.1601 21.6764 20.4601 21.6764C20.7601 21.6764 21.0055 21.4309 21.0055 21.1309V14.8527H25.4455C25.4346 15.0709 25.4019 15.3109 25.3473 15.5836C24.0601 15.6218 23.0182 16.6745 23.0182 17.9727C23.0182 19.0036 23.6728 19.8764 24.5892 20.2145C24.5728 20.2582 24.5564 20.3018 24.5346 20.3618C24.5019 20.4436 24.4637 20.5418 24.4037 20.6945C24.3001 20.9782 24.4419 21.2891 24.7255 21.3982C24.7855 21.42 24.851 21.4309 24.9164 21.4309C25.1401 21.4309 25.3473 21.2945 25.4292 21.0764C25.4837 20.9345 25.5219 20.8364 25.5492 20.76C25.6092 20.6073 25.6419 20.5145 25.691 20.3455C26.8855 20.2036 27.8182 19.2 27.8182 17.9727C27.8182 17.0073 27.2401 16.1782 26.4219 15.8018C26.4982 15.4418 26.531 15.1255 26.5419 14.8527H30.9873C30.8892 16.7509 30.2946 18.5727 29.231 20.16C29.0619 20.4109 29.1328 20.7491 29.3837 20.9182C29.4764 20.9782 29.5801 21.0109 29.6837 21.0109C29.8582 21.0109 30.0328 20.9236 30.1364 20.7709C31.4182 18.8564 32.0946 16.6255 32.0946 14.3127C32.0946 11.0345 30.7255 8.07818 28.5382 5.96182C28.5273 5.95091 28.5273 5.93455 28.5164 5.92364C28.4946 5.90182 28.4673 5.89091 28.4455 5.87455C26.3564 3.89455 23.5528 2.67273 20.4655 2.67273C17.3782 2.67273 14.5801 3.88909 12.4964 5.85818C12.4692 5.88 12.4364 5.89091 12.4092 5.91818C12.3982 5.92909 12.3928 5.94546 12.3819 5.96182C10.2001 8.07818 8.83643 11.0345 8.83643 14.3073C8.83643 16.1509 9.26733 17.9236 10.1073 19.5818C10.2382 19.8491 10.571 19.9527 10.8382 19.8164ZM25.4182 19.2764C24.6982 19.2764 24.1092 18.6927 24.1092 17.9673C24.1092 17.2418 24.6928 16.6582 25.4182 16.6582C26.1382 16.6582 26.7273 17.2418 26.7273 17.9673C26.7273 18.6927 26.1382 19.2764 25.4182 19.2764ZM14.9728 15.6055C14.9673 15.6055 14.9619 15.6055 14.9619 15.6055C14.9564 15.6055 14.951 15.6109 14.9455 15.6109C14.9346 15.6109 14.9292 15.6109 14.9182 15.6109C14.1982 15.6109 13.6092 15.0273 13.6092 14.3018C13.6092 13.5764 14.1928 12.9927 14.9182 12.9927H14.9401C14.9455 12.9927 14.951 12.9982 14.9564 12.9982H14.9673C15.6655 13.0255 16.2219 13.5982 16.2219 14.3018C16.2273 15.0055 15.6655 15.5727 14.9728 15.6055ZM17.2473 13.7618C17.051 12.9218 16.4128 12.2618 15.5946 12.0164C15.7092 10.9691 15.8946 9.98182 16.1401 9.08182C16.7673 9.33273 17.4219 9.52364 18.0928 9.66C18.2128 10.6636 18.9492 11.4764 19.9146 11.7055V13.7618H17.2473ZM22.7128 8.56909C22.4401 7.81091 21.8019 7.22728 21.011 7.04182V3.83455C22.4019 4.16728 23.6346 5.76546 24.4473 8.04C23.891 8.26909 23.3073 8.43818 22.7128 8.56909ZM21.7692 9.37091C21.7692 10.0909 21.1855 10.68 20.4601 10.68C19.7346 10.68 19.151 10.0964 19.151 9.37091C19.151 9.34909 19.1564 9.32728 19.1564 9.30546V9.3C19.1564 9.29455 19.1564 9.29455 19.1564 9.28909C19.2001 8.60728 19.7619 8.06727 20.4546 8.06727C21.1473 8.06727 21.7092 8.60728 21.7528 9.28909V9.3V9.30546C21.7637 9.32728 21.7692 9.34909 21.7692 9.37091ZM23.5364 4.22182C24.9382 4.64727 26.2146 5.36727 27.3055 6.29455C26.7328 6.78546 26.1164 7.20546 25.4564 7.56C24.9492 6.19637 24.2946 5.05637 23.5364 4.22182ZM19.9201 3.83455V7.04182C19.1237 7.22728 18.4855 7.81091 18.2182 8.56909C17.6182 8.43818 17.0401 8.26364 16.4782 8.04C17.2964 5.74364 18.5401 4.17273 19.9201 3.83455ZM15.491 7.57091C14.8255 7.21637 14.2037 6.79091 13.6255 6.3C14.7219 5.36182 16.0037 4.64727 17.4164 4.21637C16.6528 5.05091 15.9982 6.19637 15.491 7.57091ZM21.011 11.7C21.9764 11.4709 22.7128 10.6582 22.8328 9.65455C23.5037 9.51818 24.1528 9.32727 24.7801 9.07637C25.1728 10.4782 25.4073 12.0709 25.451 13.7564H21.011V11.7ZM30.9764 13.7618H26.5419C26.4982 11.8909 26.2364 10.1455 25.8001 8.61818C26.6237 8.19273 27.3928 7.66909 28.0964 7.05273C29.7764 8.82 30.8455 11.1655 30.9764 13.7618ZM12.8346 7.05273C13.5437 7.66909 14.3182 8.19818 15.1473 8.62364C14.8528 9.63818 14.6401 10.7564 14.5146 11.9455C13.5655 12.1091 12.8128 12.8291 12.5946 13.7618H9.95461C10.0855 11.1655 11.1492 8.82 12.8346 7.05273Z" fill="#FF0000"/>
</svg>
