<svg width="24" height="24" viewBox="0 0 24 24" fill="none" xmlns="http://www.w3.org/2000/svg">
<path d="M9.64569 10.4458C8.99427 10.4458 8.47998 11.0172 8.47998 11.7144C8.47998 12.4115 9.00569 12.9829 9.64569 12.9829C10.2971 12.9829 10.8114 12.4115 10.8114 11.7144C10.8228 11.0172 10.2971 10.4458 9.64569 10.4458ZM13.8171 10.4458C13.1657 10.4458 12.6514 11.0172 12.6514 11.7144C12.6514 12.4115 13.1771 12.9829 13.8171 12.9829C14.4686 12.9829 14.9828 12.4115 14.9828 11.7144C14.9828 11.0172 14.4686 10.4458 13.8171 10.4458Z" fill="#727173"/>
<path d="M19.3715 0.856934H4.05721C2.76578 0.856934 1.71436 1.90836 1.71436 3.21122V18.6626C1.71436 19.9655 2.76578 21.0169 4.05721 21.0169H17.0172L16.4115 18.9026L17.8744 20.2626L19.2572 21.5426L21.7144 23.7141V3.21122C21.7144 1.90836 20.6629 0.856934 19.3715 0.856934ZM14.9601 15.7826C14.9601 15.7826 14.5486 15.2912 14.2058 14.8569C15.7029 14.4341 16.2744 13.4969 16.2744 13.4969C15.8058 13.8055 15.3601 14.0226 14.9601 14.1712C14.3886 14.4112 13.8401 14.5712 13.3029 14.6626C12.2058 14.8684 11.2001 14.8112 10.3429 14.6512C9.6915 14.5255 9.1315 14.3426 8.66293 14.1598C8.40007 14.0569 8.11436 13.9312 7.82864 13.7712C7.79436 13.7484 7.76007 13.7369 7.72578 13.7141C7.70293 13.7026 7.6915 13.6912 7.68007 13.6798C7.47436 13.5655 7.36007 13.4855 7.36007 13.4855C7.36007 13.4855 7.90864 14.3998 9.36007 14.8341C9.01721 15.2684 8.59436 15.7826 8.59436 15.7826C6.06864 15.7026 5.10864 14.0455 5.10864 14.0455C5.10864 10.3655 6.75436 7.38265 6.75436 7.38265C8.40007 6.14836 9.96578 6.18265 9.96578 6.18265L10.0801 6.31979C8.02293 6.91408 7.07436 7.81693 7.07436 7.81693C7.07436 7.81693 7.32578 7.67979 7.74864 7.48551C8.9715 6.94836 9.94293 6.79979 10.3429 6.76551C10.4115 6.75408 10.4686 6.74265 10.5372 6.74265C11.2344 6.65122 12.0229 6.62836 12.8458 6.71979C13.9315 6.8455 15.0972 7.16551 16.2858 7.81693C16.2858 7.81693 15.3829 6.95979 13.4401 6.36551L13.6001 6.18265C13.6001 6.18265 15.1658 6.14836 16.8115 7.38265C16.8115 7.38265 18.4572 10.3655 18.4572 14.0455C18.4572 14.0455 17.4858 15.7026 14.9601 15.7826Z" fill="#727173"/>
</svg>
