<svg width="76" height="64" viewBox="0 0 76 64" fill="none" xmlns="http://www.w3.org/2000/svg">
<g clip-path="url(#clip0_136_2129)">
<g clip-path="url(#clip1_136_2129)">
<path d="M53.7117 3.53587L42.0501 2.55765L2.87012 1.96826V62.2544H44.6925L58.6281 58.4644L68.1153 50.2407L72.7557 37.3055V22.3609L65.8161 10.3537L53.7117 3.53587Z" fill="#A6A6A6"/>
<path d="M4.10825 2.98V60.3995H38.9946C60.0594 60.3995 71.5194 50.5866 71.5194 31.6164C71.5194 12.1214 59.0982 2.98 38.9946 2.98H4.10825ZM38.9946 0C69.8874 0 74.5002 19.8103 74.5002 31.6164C74.5002 52.1004 61.8906 63.3809 38.9946 63.3809C38.9946 63.3809 1.87504 63.3809 1.12744 63.3809C1.12744 62.6304 1.12744 0.748572 1.12744 0C1.87504 0 38.9946 0 38.9946 0Z" fill="#0A0B09"/>
<path d="M25.6304 22.714C25.6304 24.5094 25.6304 27.3983 25.6304 29.193C26.6144 29.193 27.6188 29.193 27.6188 29.193C28.9976 29.193 30.2696 28.7948 30.2696 25.9028C30.2696 23.0764 28.8536 22.714 27.6188 22.714C27.6188 22.714 26.6144 22.714 25.6304 22.714ZM58.8044 19.4915H62.0216C62.0216 19.4915 62.0216 26.8259 62.0216 29.193C62.7356 29.193 64.694 29.193 66.7892 29.193C65.4812 11.5895 51.6332 7.78613 39.05 7.78613H25.634V19.4981H27.6188C31.2404 19.4981 33.4892 21.9533 33.4892 25.9028C33.4892 29.9775 31.2944 32.4096 27.6188 32.4096H25.634V55.8446H39.05C59.5088 55.8446 66.6284 46.3437 66.8804 32.4096H58.8044V19.4915ZM49.8416 26.6997H52.1696L51.1052 23.0477H50.912L49.8416 26.6997ZM44.822 32.4136L48.7172 19.491H53.294L57.1892 32.4136H53.84L53.1104 29.9138H48.902L48.17 32.4136H44.822ZM43.2776 29.193V32.4096H35.3192V19.4963H43.0196V22.7117C43.0196 22.7117 40.2788 22.7117 38.5364 22.7117C38.5364 23.1551 38.5364 23.6636 38.5364 24.2088H42.7772V27.4233H38.5364C38.5364 28.0689 38.5364 28.6775 38.5364 29.193C40.3292 29.193 43.2776 29.193 43.2776 29.193Z" fill="black"/>
<path d="M21.4206 25.9474C21.4206 29.7813 18.3139 32.8893 14.4811 32.8893C10.6483 32.8893 7.53906 29.7813 7.53906 25.9474C7.53906 22.1166 10.6483 19.0073 14.4811 19.0073C18.3139 19.0073 21.4206 22.1166 21.4206 25.9474ZM8.91305 55.8339H20.0802V35.9536H8.91305V55.8339Z" fill="black"/>
</g>
</g>
<defs>
<clipPath id="clip0_136_2129">
<rect width="75" height="64" fill="white" transform="translate(0.473633)"/>
</clipPath>
<clipPath id="clip1_136_2129">
<rect width="75" height="64" fill="white" transform="translate(0.473633)"/>
</clipPath>
</defs>
</svg>
