<svg width="190" height="24" viewBox="0 0 190 24" fill="none" xmlns="http://www.w3.org/2000/svg">
<g clip-path="url(#clip0_136_2126)">
<path d="M26.6165 23.424V12.936C26.6165 8.976 24.085 6.336 20.0106 6.288C17.8649 6.264 15.6468 6.912 14.1038 9.264C12.9466 7.416 11.1143 6.288 8.55874 6.288C6.77467 6.288 5.0147 6.816 3.64048 8.76V6.72H0V23.424H3.6887V14.16C3.6887 11.256 5.30401 9.72 7.78725 9.72C10.1982 9.72 11.4277 11.304 11.4277 14.136V23.424H15.1164V14.16C15.1164 11.256 16.8041 9.72 19.215 9.72C21.6982 9.72 22.9037 11.304 22.9037 14.136V23.424H26.6165ZM81.1996 6.72H75.2205V1.632H71.5318V6.72H68.1324V10.032H71.5318V17.664C71.5318 21.552 73.0507 23.856 77.3662 23.856C78.9574 23.856 80.7656 23.376 81.9228 22.56L80.862 19.44C79.7771 20.064 78.5717 20.376 77.6314 20.376C75.7991 20.376 75.2205 19.248 75.2205 17.568V10.032H81.1996V6.72ZM112.324 6.288C110.227 6.288 108.853 7.272 107.888 8.736V6.72H104.272V23.424H107.912V14.064C107.912 11.304 109.118 9.768 111.505 9.768C112.252 9.768 113.024 9.864 113.795 10.176L114.928 6.744C114.133 6.432 113.072 6.288 112.324 6.288ZM65.2393 8.04C63.4794 6.888 61.0684 6.288 58.3923 6.288C54.1491 6.288 51.4007 8.304 51.4007 11.64C51.4007 14.376 53.4258 16.056 57.1869 16.56L58.8986 16.8C60.8997 17.088 61.8399 17.592 61.8399 18.552C61.8399 19.848 60.5139 20.568 58.0066 20.568C55.4751 20.568 53.6428 19.752 52.4133 18.816L50.7015 21.648C52.7026 23.112 55.234 23.808 57.9825 23.808C62.8284 23.808 65.6492 21.528 65.6492 18.36C65.6492 15.432 63.4311 13.896 59.7907 13.368L58.0789 13.128C56.4877 12.912 55.234 12.6 55.234 11.496C55.234 10.272 56.4395 9.528 58.4405 9.528C60.5863 9.528 62.6596 10.344 63.6722 10.968L65.2393 8.04ZM163.074 6.288C160.977 6.288 159.602 7.272 158.638 8.736V6.72H155.022V23.424H158.662V14.064C158.662 11.304 159.868 9.768 162.254 9.768C163.002 9.768 163.773 9.864 164.545 10.176L165.678 6.744C164.858 6.432 163.822 6.288 163.074 6.288ZM116.013 15.072C116.013 20.136 119.557 23.856 124.958 23.856C127.489 23.856 129.177 23.304 131.009 21.864L129.249 18.936C127.875 19.92 126.428 20.448 124.861 20.448C121.944 20.424 119.798 18.312 119.798 15.096C119.798 11.88 121.944 9.792 124.861 9.744C126.452 9.744 127.875 10.272 129.249 11.256L131.009 8.328C129.177 6.888 127.489 6.336 124.958 6.336C119.581 6.288 116.013 10.008 116.013 15.072ZM150.224 15.072V6.72H146.584V8.736C145.426 7.224 143.666 6.288 141.28 6.288C136.578 6.288 132.89 9.96 132.89 15.072C132.89 20.184 136.578 23.856 141.28 23.856C143.666 23.856 145.426 22.92 146.584 21.408V23.424H150.224V15.072ZM136.626 15.072C136.626 12.144 138.555 9.72 141.713 9.72C144.727 9.72 146.776 12.024 146.776 15.072C146.776 18.12 144.751 20.424 141.713 20.424C138.555 20.424 136.626 18 136.626 15.072ZM92.555 6.288C87.6367 6.288 84.1891 9.864 84.1891 15.072C84.1891 20.376 87.7814 23.856 92.7961 23.856C95.3275 23.856 97.642 23.232 99.6672 21.504L97.8831 18.816C96.4848 19.944 94.6766 20.568 93.013 20.568C90.6503 20.568 88.5287 19.488 87.9983 16.488H100.463C100.487 16.032 100.535 15.576 100.535 15.096C100.511 9.864 97.2804 6.288 92.555 6.288ZM92.5068 9.552C94.8694 9.552 96.3642 11.016 96.75 13.608H88.0466C88.4323 11.184 89.903 9.552 92.5068 9.552ZM184.121 15.072V0H180.481V8.736C179.324 7.224 177.564 6.288 175.177 6.288C170.476 6.288 166.787 9.96 166.787 15.072C166.787 20.184 170.476 23.856 175.177 23.856C177.564 23.856 179.324 22.92 180.481 21.408V23.424H184.121V15.072ZM188.389 21.888C188.533 21.888 188.678 21.912 188.799 21.96C188.919 22.008 189.04 22.08 189.136 22.176C189.233 22.272 189.305 22.392 189.377 22.512C189.425 22.632 189.474 22.776 189.474 22.92C189.474 23.064 189.45 23.208 189.377 23.328C189.329 23.448 189.233 23.568 189.136 23.664C189.04 23.76 188.919 23.832 188.799 23.904C188.678 23.952 188.533 24 188.389 24C188.244 24 188.099 23.976 187.955 23.904C187.81 23.856 187.714 23.76 187.617 23.664C187.521 23.568 187.449 23.448 187.376 23.328C187.328 23.208 187.28 23.064 187.28 22.92C187.28 22.776 187.304 22.632 187.376 22.512C187.424 22.392 187.521 22.272 187.617 22.176C187.714 22.08 187.834 22.008 187.955 21.96C188.075 21.912 188.22 21.888 188.389 21.888ZM188.389 23.76C188.509 23.76 188.606 23.736 188.702 23.688C188.799 23.64 188.895 23.592 188.967 23.52C189.04 23.448 189.112 23.352 189.136 23.256C189.184 23.16 189.208 23.04 189.208 22.944C189.208 22.824 189.184 22.728 189.136 22.632C189.088 22.536 189.04 22.44 188.967 22.368C188.895 22.296 188.799 22.224 188.702 22.2C188.606 22.152 188.485 22.128 188.389 22.128C188.268 22.128 188.172 22.152 188.051 22.2C187.955 22.248 187.858 22.296 187.786 22.368C187.714 22.44 187.641 22.536 187.617 22.632C187.569 22.728 187.545 22.848 187.545 22.944C187.545 23.064 187.569 23.16 187.617 23.256C187.665 23.352 187.714 23.448 187.786 23.52C187.858 23.592 187.955 23.664 188.051 23.688C188.148 23.736 188.268 23.76 188.389 23.76ZM188.437 22.44C188.558 22.44 188.654 22.464 188.726 22.536C188.799 22.584 188.823 22.68 188.823 22.776C188.823 22.848 188.799 22.92 188.75 22.968C188.702 23.016 188.606 23.064 188.509 23.064L188.823 23.424H188.558L188.268 23.064H188.172V23.424H187.955V22.44H188.437ZM188.196 22.632V22.896H188.437C188.485 22.896 188.533 22.896 188.582 22.872C188.606 22.848 188.63 22.824 188.63 22.776C188.63 22.728 188.606 22.704 188.582 22.68C188.558 22.656 188.509 22.656 188.437 22.656H188.196V22.632ZM170.524 15.072C170.524 12.144 172.453 9.72 175.611 9.72C178.625 9.72 180.674 12.024 180.674 15.072C180.674 18.12 178.649 20.424 175.611 20.424C172.453 20.424 170.524 18 170.524 15.072ZM47.2057 15.072V6.72H43.5652V8.736C42.408 7.224 40.648 6.288 38.2612 6.288C33.5599 6.288 29.8712 9.96 29.8712 15.072C29.8712 20.184 33.5599 23.856 38.2612 23.856C40.648 23.856 42.408 22.92 43.5652 21.408V23.424H47.2057V15.072ZM33.6081 15.072C33.6081 12.144 35.5369 9.72 38.6952 9.72C41.7088 9.72 43.7581 12.024 43.7581 15.072C43.7581 18.12 41.7329 20.424 38.6952 20.424C35.5369 20.424 33.6081 18 33.6081 15.072Z" fill="#A6A6A6"/>
</g>
<defs>
<clipPath id="clip0_136_2126">
<rect width="189.474" height="24" fill="white"/>
</clipPath>
</defs>
</svg>
