<svg width="150" height="32" viewBox="0 0 150 32" fill="none" xmlns="http://www.w3.org/2000/svg">
<g clip-path="url(#clip0_179_5160)">
<path d="M52.9471 18.431L52.053 20.9612H51.9785C51.8295 20.3907 51.5563 19.5225 51.1093 18.4806L46.3163 6.44959H41.6226V25.6248H44.7269V13.7922C44.7269 13.048 44.7269 12.2046 44.702 11.1628C44.6772 10.6418 44.6275 10.2449 44.6027 9.94726H44.6772C44.8262 10.6914 45 11.2372 45.1242 11.5845L50.8858 25.5752H53.0712L58.7832 11.4604C58.9073 11.138 59.0315 10.493 59.1557 9.94726H59.2302C59.1557 11.3612 59.106 12.6263 59.0812 13.3953V25.5504H62.3841V6.39998H57.8643L52.9471 18.431ZM65.5133 11.8077H68.7418V25.5504H65.5133V11.8077ZM67.1524 6.00308C66.606 6.00308 66.159 6.20153 65.7865 6.54881C65.4139 6.8961 65.2153 7.34261 65.2153 7.88835C65.2153 8.40928 65.4139 8.85579 65.7865 9.20308C66.159 9.55036 66.606 9.72401 67.1524 9.72401C67.6987 9.72401 68.1706 9.52556 68.5183 9.20308C68.8908 8.85579 69.0894 8.40928 69.0894 7.88835C69.0894 7.36742 68.8908 6.92091 68.5183 6.54881C68.1954 6.20153 67.7235 6.00308 67.1524 6.00308ZM80.1904 11.6837C79.5944 11.5597 78.9736 11.4852 78.3775 11.4852C76.9123 11.4852 75.5712 11.8077 74.4537 12.4527C73.3361 13.0977 72.4421 13.9907 71.8709 15.107C71.2749 16.248 70.9769 17.5628 70.9769 19.0759C70.9769 20.3907 71.2749 21.5566 71.8461 22.6232C72.4173 23.6651 73.212 24.5085 74.2798 25.079C75.2981 25.6496 76.4901 25.9473 77.8312 25.9473C79.3709 25.9473 80.6871 25.6248 81.7302 25.0294L81.755 25.0046V22.0279L81.6308 22.1271C81.159 22.4744 80.6126 22.7721 80.0663 22.9457C79.4951 23.1442 78.9736 23.2434 78.5265 23.2434C77.2351 23.2434 76.2169 22.8713 75.4967 22.0527C74.7517 21.2589 74.3792 20.1674 74.3792 18.8031C74.3792 17.3891 74.7517 16.2728 75.5216 15.4542C76.2914 14.6356 77.3096 14.2139 78.5514 14.2139C79.5944 14.2139 80.6623 14.5612 81.6308 15.2558L81.755 15.355V12.2046L81.7302 12.1798C81.308 12.0062 80.8361 11.8077 80.1904 11.6837ZM90.8444 11.5845C90.0497 11.5845 89.3047 11.8325 88.659 12.3535C88.1126 12.8 87.7401 13.4449 87.4173 14.2139H87.3924V11.8077H84.1639V25.5504H87.3924V18.5302C87.3924 17.3395 87.6408 16.3473 88.1871 15.6279C88.7335 14.8837 89.4288 14.5116 90.2732 14.5116C90.5712 14.5116 90.8692 14.586 91.2418 14.6356C91.5894 14.7349 91.8378 14.8341 92.0116 14.9581L92.1358 15.0573V11.8325L92.0613 11.8077C91.8378 11.6589 91.3908 11.5845 90.8444 11.5845ZM99.6358 11.5101C97.3759 11.5101 95.563 12.1798 94.2964 13.4946C93.005 14.8093 92.3841 16.6201 92.3841 18.9023C92.3841 21.0356 93.0298 22.7721 94.2716 24.0372C95.5133 25.2775 97.202 25.9225 99.313 25.9225C101.523 25.9225 103.286 25.2527 104.553 23.9132C105.844 22.5736 106.465 20.7876 106.465 18.5798C106.465 16.3969 105.869 14.6604 104.652 13.3953C103.485 12.1302 101.772 11.5101 99.6358 11.5101ZM102.219 22.0775C101.623 22.8465 100.679 23.2186 99.5116 23.2186C98.3444 23.2186 97.4007 22.8465 96.7302 22.0279C96.0596 21.2589 95.7368 20.1426 95.7368 18.7287C95.7368 17.2651 96.0845 16.1488 96.7302 15.355C97.4007 14.5612 98.3196 14.1643 99.4868 14.1643C100.629 14.1643 101.523 14.5364 102.169 15.3054C102.815 16.0744 103.162 17.1907 103.162 18.6542C103.113 20.1426 102.839 21.3085 102.219 22.0775ZM113.667 17.5132C112.649 17.0914 112.003 16.769 111.705 16.4961C111.457 16.248 111.333 15.9008 111.333 15.4542C111.333 15.0821 111.482 14.7101 111.854 14.462C112.227 14.2139 112.649 14.0899 113.27 14.0899C113.816 14.0899 114.387 14.1891 114.934 14.338C115.48 14.4868 115.977 14.7101 116.374 15.0077L116.498 15.107V12.0806L116.424 12.0558C116.051 11.907 115.555 11.7581 114.959 11.6341C114.363 11.5349 113.816 11.4852 113.369 11.4852C111.83 11.4852 110.563 11.8573 109.57 12.6759C108.576 13.4449 108.104 14.4868 108.104 15.7023C108.104 16.3473 108.204 16.9178 108.427 17.3891C108.651 17.8604 108.974 18.307 109.421 18.679C109.868 19.0263 110.513 19.4232 111.407 19.7953C112.152 20.1178 112.724 20.3659 113.071 20.5643C113.419 20.7628 113.642 20.986 113.816 21.1597C113.94 21.3581 114.015 21.6062 114.015 21.9287C114.015 22.8465 113.32 23.293 111.904 23.293C111.358 23.293 110.786 23.1938 110.116 22.9705C109.445 22.7473 108.825 22.4248 108.303 22.0527L108.179 21.9535V25.1039L108.253 25.1287C108.725 25.3519 109.296 25.5008 109.992 25.6744C110.687 25.7984 111.308 25.8977 111.854 25.8977C113.518 25.8977 114.884 25.5256 115.853 24.707C116.846 23.9132 117.368 22.8961 117.368 21.5814C117.368 20.6635 117.119 19.8449 116.573 19.2248C115.853 18.6294 114.959 18.0093 113.667 17.5132ZM125.886 11.5101C123.626 11.5101 121.813 12.1798 120.546 13.4946C119.28 14.8093 118.634 16.6201 118.634 18.9023C118.634 21.0356 119.28 22.7721 120.522 24.0372C121.763 25.2775 123.452 25.9225 125.563 25.9225C127.773 25.9225 129.536 25.2527 130.803 23.9132C132.094 22.5736 132.715 20.7876 132.715 18.5798C132.715 16.3969 132.119 14.6604 130.902 13.3953C129.735 12.1302 128.022 11.5101 125.886 11.5101ZM128.444 22.0775C127.848 22.8465 126.904 23.2186 125.737 23.2186C124.545 23.2186 123.626 22.8465 122.955 22.0279C122.285 21.2589 121.962 20.1426 121.962 18.7287C121.962 17.2651 122.31 16.1488 122.955 15.355C123.626 14.5612 124.545 14.1643 125.712 14.1643C126.83 14.1643 127.748 14.5364 128.394 15.3054C129.04 16.0744 129.387 17.1907 129.387 18.6542C129.387 20.1426 129.065 21.3085 128.444 22.0775ZM149.975 14.462V11.8077H146.722V7.73951L146.623 7.76432L143.543 8.68215L143.469 8.70695V11.8077H138.601V10.0713C138.601 9.2775 138.8 8.65734 139.147 8.26044C139.495 7.86354 140.017 7.66509 140.662 7.66509C141.109 7.66509 141.581 7.76432 142.103 7.98757L142.227 8.06199V5.25889L142.152 5.23408C141.705 5.08525 141.109 4.98602 140.339 4.98602C139.371 4.98602 138.527 5.20928 137.757 5.58137C136.987 6.00308 136.416 6.57362 135.993 7.34261C135.571 8.0868 135.348 8.93021 135.348 9.89765V11.8077H133.088V14.4372H135.348V25.5504H138.601V14.462H143.469V21.5318C143.469 24.4341 144.834 25.8977 147.566 25.8977C148.013 25.8977 148.485 25.8232 148.932 25.7488C149.404 25.6496 149.752 25.5256 149.95 25.4263L149.975 25.4015V22.7473L149.851 22.8465C149.652 22.9705 149.479 23.0697 149.181 23.1442C148.932 23.2186 148.709 23.2434 148.535 23.2434C147.889 23.2434 147.442 23.0945 147.119 22.7225C146.821 22.3752 146.672 21.8046 146.672 20.9612V14.462H149.975Z" fill="#8A8A8A"/>
<path d="M0 0H15.2235V15.2062H0V0Z" fill="#8A8A8A"/>
<path d="M16.813 0H32.0365V15.2062H16.813V0Z" fill="#8A8A8A"/>
<path d="M0 16.7938H15.2235V32H0V16.7938Z" fill="#8A8A8A"/>
<path d="M16.813 16.7938H32.0365V32H16.813V16.7938Z" fill="#8A8A8A"/>
</g>
<defs>
<clipPath id="clip0_179_5160">
<rect width="150" height="32" fill="white"/>
</clipPath>
</defs>
</svg>
