<svg width="30" height="31" viewBox="0 0 30 31" fill="none" xmlns="http://www.w3.org/2000/svg">
<path d="M17.3928 14.971V0.590465C17.3928 0.00979875 17.3928 0.00979875 17.9916 0.00979875C19.4342 0.00979875 20.8677 0.000725832 22.3103 0.00979875C26.1119 0.0279446 29.36 2.91313 29.8317 6.68746C29.8771 7.05038 29.8953 7.42237 29.8953 7.78529C29.8953 12.603 29.9043 17.4207 29.8953 22.2384C29.8953 26.0491 27.3821 29.1248 23.644 29.8778C23.145 29.9776 22.6279 30.0049 22.1198 30.0139C20.7044 30.0321 19.289 30.023 17.8736 30.023C17.42 30.023 17.3928 29.9958 17.3928 29.5331V14.971ZM26.3296 16.5225C26.3296 14.8349 25.005 13.5103 23.3355 13.5103C21.6752 13.5103 20.3415 14.8349 20.3324 16.4953C20.3233 18.1828 21.648 19.5256 23.3174 19.5347C24.9868 19.5347 26.3205 18.201 26.3296 16.5225ZM14.4441 15.0436V29.4242C14.4441 30.023 14.4441 30.023 13.8543 30.023C11.7404 30.023 9.61729 30.0502 7.5033 30.0139C3.52936 29.9413 0.28126 26.8112 0.0362917 22.8554C0.0181458 22.5016 0 22.1386 0 21.7848V8.01211C0 6.5423 0.272188 5.14507 1.03431 3.88393C2.54042 1.38888 4.75421 0.0733092 7.67569 0.0188717C9.75338 -0.01742 11.8402 0.00979875 13.9179 0.00979875C14.435 0.00979875 14.4441 0.0188716 14.4441 0.554174V15.0436ZM11.9853 2.46856H7.14946C6.97707 2.46856 6.79561 2.51392 6.62323 2.55022C4.10096 3.10366 2.44061 5.19043 2.44061 7.86694C2.43154 12.6212 2.44061 17.3844 2.44061 22.1386C2.44061 22.5016 2.46783 22.8826 2.53134 23.2365C3.03035 25.8313 5.10805 27.5461 7.74827 27.5642C9.0457 27.5733 10.3431 27.5642 11.6406 27.5642C11.7494 27.5642 11.8674 27.5461 11.9853 27.5461V2.46856Z" fill="#8A8A8A"/>
</svg>
