<svg width="147" height="32" viewBox="0 0 147 32" fill="none" xmlns="http://www.w3.org/2000/svg">
<path d="M66.6301 20.2347C65.6413 23.7066 64.72 26.9353 63.7762 30.1639C63.3717 31.5792 63.7088 31.4244 62.0908 31.4244C61.1245 31.4244 59.9335 31.6677 59.2818 31.2033C58.6751 30.761 58.6526 29.5226 58.4054 28.638C57.0796 24.0825 55.7762 19.5049 54.4728 14.9494C54.4054 14.7282 54.3829 14.5071 54.293 14.109C55.5065 14.109 56.6751 14.0869 57.8211 14.1311C58.0009 14.1311 58.2256 14.5734 58.293 14.8388C59.3267 18.5982 60.338 22.3797 61.3942 26.3382C61.5515 25.8959 61.6638 25.6084 61.7537 25.3209C62.7649 21.8711 63.7986 18.4434 64.7874 14.9715C64.9672 14.308 65.2144 14.0206 65.9784 14.0427C68.2031 14.0869 68.2031 14.0427 68.8323 16.1435C69.7312 19.1953 70.6526 22.247 71.5514 25.2988C71.6413 25.5642 71.7312 25.8295 71.8885 26.3824C72.0458 25.8295 72.1582 25.5199 72.2256 25.1882C73.1469 21.7605 74.1132 18.3107 74.9896 14.8609C75.1469 14.2196 75.4166 14.0206 76.0683 14.0427C77.0121 14.0869 77.9559 14.0648 79.0121 14.0648C78.9447 14.3965 78.8997 14.6398 78.8323 14.883C77.3267 20.1241 75.8211 25.343 74.338 30.5841C74.1582 31.1812 73.911 31.4466 73.2593 31.4023C72.4728 31.336 71.6638 31.336 70.8773 31.4023C70.0908 31.4687 69.7537 31.2033 69.5514 30.4293C68.6975 27.267 67.7762 24.1268 66.8998 20.9865C66.8548 20.8096 66.7649 20.6327 66.6301 20.2347ZM130.001 14.1532H133.664V20.8317H141.686V14.109C142.877 14.109 143.978 14.0869 145.079 14.1532C145.214 14.1532 145.416 14.684 145.416 14.9715C145.439 19.1953 145.439 23.4412 145.439 27.665C145.439 28.6823 145.416 29.6995 145.439 30.7168C145.461 31.2475 145.259 31.4465 144.72 31.4244C143.754 31.4023 142.787 31.4244 141.754 31.4244V24.5911H133.641V31.4244H130.45C129.821 31.4244 130.001 30.9158 130.001 30.5841V19.3722V14.1532ZM36.0908 30.1197C36.72 28.9919 37.2594 28.0631 37.7088 27.2449C39.3942 27.6871 40.9672 28.2842 42.6077 28.4832C43.9784 28.6602 45.3942 28.3948 46.8099 28.2842C47.147 28.2621 47.5515 28.1073 47.7537 27.8862C48.1357 27.4218 48.6526 26.8468 48.6301 26.3382C48.6077 25.8959 48.0234 25.2546 47.529 25.0777C46.3155 24.6575 45.0346 24.4585 43.7762 24.1489C42.2481 23.7729 40.6751 23.4412 39.1919 22.9326C37.6189 22.4018 36.5403 21.3182 36.383 19.5933C36.2032 17.7579 37.0122 16.3868 38.5403 15.4138C40.4054 14.1975 42.4953 13.7994 44.6751 13.8879C46.8099 13.9763 48.8548 14.4186 50.9447 15.2368C50.5178 16.2541 50.1133 17.2271 49.7537 18.1117C48.2032 17.78 46.765 17.3377 45.2818 17.1829C44.1358 17.0502 42.9447 17.2714 41.7762 17.3819C41.5065 17.404 41.147 17.5146 40.9672 17.6915C40.6301 18.0453 40.1807 18.4876 40.1807 18.9078C40.1582 19.2837 40.6077 19.8587 40.9897 19.9914C42.2706 20.4116 43.5964 20.6548 44.8998 21.0086C46.338 21.3846 47.8211 21.7163 49.2144 22.2249C51.1245 22.9105 52.3829 24.1489 52.3605 26.3603C52.338 28.6159 51.2818 30.1861 49.1695 31.0043C46.1133 32.1984 42.9447 32.1321 39.7987 31.3802C38.5627 31.0706 37.3942 30.562 36.0908 30.1197ZM123.259 25.4757C124.203 26.2939 125.102 27.0679 126.001 27.8419C124.36 30.9158 119.978 32.6407 116.181 31.7783C112.181 30.8716 109.124 27.2891 108.99 23.3306C108.832 18.9078 111.461 15.1705 115.619 13.9321C119.529 12.7601 123.888 14.3081 126.046 17.6694C125.147 18.4655 124.226 19.2616 123.237 20.102C122.001 18.3771 120.383 17.404 118.226 17.4483C116.675 17.4925 115.372 18.0896 114.315 19.2174C112.293 21.3846 112.473 24.7017 114.697 26.692C117.214 28.9476 120.405 28.5054 123.259 25.4757ZM97.0346 17.8242H91.5514V14.1311C91.8211 14.109 92.1132 14.0869 92.4053 14.0869C96.7424 14.0869 101.057 14.109 105.394 14.0648C106.113 14.0648 106.428 14.2417 106.36 14.9715C106.293 15.6349 106.293 16.2983 106.36 16.9617C106.428 17.6915 106.113 17.8463 105.439 17.8242C103.978 17.78 102.495 17.8021 100.9 17.8021V18.8857C100.9 22.7336 100.877 26.5814 100.922 30.4514C100.922 31.1591 100.765 31.4687 100.001 31.4023C99.3267 31.336 98.6525 31.336 97.9784 31.4023C97.2143 31.4687 97.057 31.137 97.057 30.4514C97.0795 26.6257 97.0795 22.7999 97.0795 18.9741C97.0345 18.6646 97.0346 18.3328 97.0346 17.8242ZM83.4166 14.1532H87.2593V31.3581H83.4166V14.1532ZM136.203 4.93163C136.203 2.21158 138.428 -0.0219514 141.169 0.000162813C143.866 0.022277 146.068 2.21158 146.091 4.90951C146.113 7.62956 143.843 9.8631 141.124 9.84098C138.383 9.79675 136.226 7.62956 136.203 4.93163ZM143.978 4.90951C143.978 3.38363 142.63 2.05678 141.079 2.10101C139.551 2.12313 138.293 3.40574 138.293 4.90951C138.293 6.43539 139.529 7.69591 141.079 7.71802C142.63 7.74013 143.978 6.43539 143.978 4.90951ZM61.3267 0.376103C62.5402 0.0886185 63.3492 0.376103 64.0458 1.43758C65.0795 3.02981 66.338 4.48934 67.6413 6.23636V0.353984H69.5514C69.5739 0.685697 69.5964 0.973188 69.5964 1.28279C69.5964 3.62689 69.6189 5.97099 69.5739 8.3151C69.5739 8.71315 69.3941 9.44292 69.2144 9.44292C68.5402 9.50927 67.7986 9.75252 67.2368 8.95641C66.1582 7.3863 64.9447 5.86042 63.7986 4.33454C63.6638 4.15763 63.5065 3.98071 63.1919 3.58266V9.46504H61.3043C61.3267 6.4575 61.3267 3.42786 61.3267 0.376103ZM45.2144 9.4208C43.9784 9.77463 43.2144 9.3987 42.5627 8.40356C41.4841 6.78922 40.2481 5.28545 38.9223 3.4942V9.44292H37.0122V0.353984C38.1133 0.154956 38.9672 0.221305 39.6638 1.28279C40.7425 2.91924 42.0009 4.423 43.3942 5.94888V0.331877H45.2369C45.2144 3.38364 45.2144 6.39116 45.2144 9.4208ZM111.933 0.331877H113.821V9.37658C112.428 9.75253 112.113 9.64195 111.304 8.55835C110.226 7.14304 109.169 5.72774 108.091 4.31243C107.933 4.1134 107.776 3.93649 107.484 3.60477V9.53138C106.922 9.53138 106.45 9.57561 105.956 9.50927C105.799 9.48715 105.529 9.24389 105.529 9.11121C105.506 6.21425 105.506 3.3394 105.506 0.464556C107.012 0.0664999 107.304 0.154962 108.181 1.3049C109.372 2.87501 110.563 4.44511 111.933 6.23636V0.331877ZM121.619 4.90951C121.619 3.60477 121.596 2.30004 121.641 0.995305C121.641 0.752049 121.956 0.331877 122.136 0.331877C123.506 0.309763 124.922 0.221301 126.27 0.420329C128.81 0.796271 130.428 2.85289 130.248 5.26334C130.091 7.58533 128.091 9.44292 125.574 9.53138C124.495 9.5756 123.394 9.50927 122.293 9.55349C121.754 9.57561 121.574 9.37658 121.574 8.84584C121.641 7.51899 121.619 6.21425 121.619 4.90951ZM123.596 4.8874V5.41814C123.641 6.10368 123.686 6.7671 123.754 7.45264C124.63 7.43053 125.529 7.51899 126.36 7.36419C127.484 7.16516 128.27 5.971 128.248 4.82106C128.203 3.649 127.394 2.60964 126.226 2.38849C125.574 2.25581 124.877 2.30004 124.203 2.25581C123.731 2.23369 123.574 2.43273 123.596 2.87501V4.8874ZM97.8885 0.287645V2.05678H92.675V3.93649H97.484V5.66139H92.6975V7.74013H97.866V9.55349H92.6525C90.675 9.55349 90.675 9.55349 90.675 7.58533C90.675 5.44025 90.6975 3.29517 90.6525 1.1501C90.6525 0.508785 90.8323 0.287644 91.5065 0.309758C93.5964 0.331872 95.7087 0.287645 97.8885 0.287645ZM76.1582 2.32215V0.353984H83.9334V2.30003H81.1469V9.46504H79.1245C79.102 9.17755 79.057 8.86795 79.057 8.55835V3.95861C79.0346 2.10101 79.3042 2.34427 77.4391 2.32215H76.1582ZM52.293 0.287645H53.4841C53.7088 0.287645 53.9335 0.309763 54.2481 0.331877V9.46504H52.293V0.287645Z" fill="#8A8A8A"/>
<path d="M18.5422 15.9547V1.58982C18.5422 1.00979 18.5422 1.00979 19.143 1.00979C20.5905 1.00979 22.0288 1.00073 23.4763 1.00979C27.2906 1.02791 30.5497 3.90995 31.023 7.68016C31.0686 8.04268 31.0868 8.41426 31.0868 8.77678C31.0868 13.5892 31.0959 18.4017 31.0868 23.2142C31.0868 27.0206 28.5651 30.093 24.8145 30.8452C24.3138 30.9449 23.7949 30.9721 23.2851 30.9811C21.865 30.9993 20.4448 30.9902 19.0247 30.9902C18.5695 30.9902 18.5422 30.963 18.5422 30.5008V15.9547ZM27.5091 17.5045C27.5091 15.8187 26.18 14.4955 24.505 14.4955C22.839 14.4955 21.5008 15.8187 21.4917 17.4773C21.4826 19.163 22.8117 20.5043 24.4868 20.5134C26.1618 20.5134 27.5 19.1811 27.5091 17.5045ZM15.5836 16.0272V30.3921C15.5836 30.9902 15.5836 30.9902 14.9918 30.9902C12.8707 30.9902 10.7405 31.0174 8.61939 30.9811C4.63207 30.9086 1.37303 27.7819 1.12723 23.8304C1.10903 23.477 1.09082 23.1145 1.09082 22.761V9.00336C1.09082 7.53515 1.36392 6.13945 2.12862 4.87969C3.63979 2.38737 5.86104 1.07323 8.79236 1.01885C10.8771 0.982599 12.9709 1.00979 15.0556 1.00979C15.5745 1.00979 15.5836 1.01885 15.5836 1.55357V16.0272ZM13.1165 3.46586H8.26436C8.09139 3.46586 7.90932 3.51118 7.73636 3.54743C5.20559 4.10027 3.53966 6.18476 3.53966 8.85835C3.53055 13.6074 3.53966 18.3654 3.53966 23.1145C3.53966 23.477 3.56697 23.8576 3.63069 24.2111C4.13138 26.8031 6.21608 28.516 8.86519 28.5341C10.167 28.5432 11.4688 28.5341 12.7706 28.5341C12.8798 28.5341 12.9982 28.516 13.1165 28.516V3.46586Z" fill="#8A8A8A"/>
<path d="M5.09082 10.0095C5.09082 8.35139 6.4338 7 8.08596 7C9.74779 7 11.1004 8.36098 11.0908 10.0095C11.0811 11.658 9.74779 12.9806 8.10529 12.9998C6.45313 13.019 5.09082 11.6676 5.09082 10.0095Z" fill="#8A8A8A"/>
</svg>
