<svg width="151" height="52" viewBox="0 0 151 52" fill="none" xmlns="http://www.w3.org/2000/svg">
<g clip-path="url(#clip0_136_2136)">
<path d="M150.37 0.756104V38.4729H141.825V0.756104H150.37Z" fill="#A6A6A6"/>
<path d="M138.672 13.4742V38.525H131.074V36.3691C130.115 37.3064 129.017 38.0212 127.797 38.525C126.572 39.0581 125.247 39.3276 123.823 39.3276C122.034 39.3276 120.379 38.9937 118.857 38.3258C117.335 37.6228 116.01 36.6737 114.883 35.4727C113.756 34.2717 112.862 32.8658 112.2 31.2664C111.572 29.6319 111.258 27.8743 111.258 26.0054C111.258 24.1367 111.572 22.3967 112.2 20.7973C112.862 19.1628 113.756 17.7392 114.883 16.5382C116.01 15.3372 117.335 14.3998 118.857 13.7319C120.379 13.029 122.034 12.6775 123.823 12.6775C125.247 12.6775 126.572 12.9469 127.797 13.4801C129.023 13.9839 130.115 14.6987 131.074 15.636V13.4801H138.672V13.4742ZM125.207 31.7117C126.763 31.7117 128.035 31.1785 129.028 30.1064C130.057 29.0401 130.568 27.6693 130.568 25.9996C130.568 24.3299 130.057 22.9591 129.028 21.8928C128.035 20.8266 126.758 20.2876 125.207 20.2876C123.655 20.2876 122.36 20.8207 121.332 21.8928C120.338 22.9591 119.839 24.3299 119.839 25.9996C119.839 27.6693 120.338 29.0401 121.332 30.1064C122.36 31.1727 123.649 31.7117 125.207 31.7117Z" fill="#A6A6A6"/>
<path d="M99.0729 0.75C101.327 0.75 103.244 1.06636 104.836 1.69908C106.427 2.33179 107.769 3.21642 108.862 4.35296C109.989 5.52465 110.865 6.86038 111.493 8.36015C112.12 9.86579 112.435 11.4827 112.435 13.2227C112.435 14.9627 112.12 16.5796 111.493 18.0852C110.865 19.5908 109.989 20.9266 108.862 22.0924C107.769 23.229 106.427 24.1136 104.836 24.7462C103.244 25.379 101.327 25.6954 99.0729 25.6954H94.9484V38.5196H86.252V0.75H99.0675H99.0729ZM97.8298 17.9329C98.9921 17.9329 99.8804 17.8158 100.514 17.5814C101.176 17.3119 101.722 16.978 102.152 16.5796C103.047 15.7418 103.494 14.6229 103.494 13.2227C103.494 11.8225 103.047 10.7036 102.152 9.86579C101.722 9.4674 101.176 9.14518 100.514 8.91671C99.8867 8.64722 98.9921 8.51833 97.8298 8.51833H94.9484V17.9388H97.8298V17.9329Z" fill="#A6A6A6"/>
<path d="M54.2241 13.4746H63.6641L70.0718 25.4961H70.1705L75.881 13.4746H84.624L65.8949 51.25H57.1984L65.7439 33.9675L54.2183 13.4746H54.2241Z" fill="#A6A6A6"/>
<path d="M52.5321 13.4742V38.525H44.9336V36.3691C43.975 37.3064 42.8771 38.0212 41.6571 38.525C40.4314 39.0581 39.1069 39.3276 37.6836 39.3276C35.8944 39.3276 34.2387 38.9937 32.7167 38.3258C31.1947 37.6228 29.8701 36.6737 28.7431 35.4727C27.6162 34.2717 26.7215 32.8658 26.0593 31.2664C25.4319 29.6319 25.1182 27.8743 25.1182 26.0054C25.1182 24.1367 25.4319 22.3967 26.0593 20.7973C26.7215 19.1628 27.6162 17.7392 28.7431 16.5382C29.8701 15.3372 31.1947 14.3998 32.7167 13.7319C34.2387 13.029 35.8944 12.6775 37.6836 12.6775C39.1069 12.6775 40.4314 12.9469 41.6571 13.4801C42.8829 13.9839 43.975 14.6987 44.9336 15.636V13.4801H52.5321V13.4742ZM39.0662 31.7117C40.6231 31.7117 41.8953 31.1785 42.8945 30.1064C43.9228 29.0401 44.4339 27.6693 44.4339 25.9996C44.4339 24.3299 43.9228 22.9591 42.8945 21.8928C41.9012 20.8266 40.6231 20.2876 39.0662 20.2876C37.5093 20.2876 36.2197 20.8207 35.1914 21.8928C34.198 22.9591 33.6984 24.3299 33.6984 25.9996C33.6984 27.6693 34.198 29.0401 35.1914 30.1064C36.2197 31.1727 37.5093 31.7117 39.0662 31.7117Z" fill="#A6A6A6"/>
<path d="M13.2888 0.75C15.5429 0.75 17.4599 1.06636 19.0517 1.69908C20.6434 2.33179 21.9853 3.21642 23.0775 4.35296C24.2045 5.52465 25.0817 6.86038 25.7091 8.36015C26.3365 9.86579 26.6502 11.4827 26.6502 13.2227C26.6502 14.9627 26.3365 16.5796 25.7091 18.0852C25.0817 19.5908 24.2045 20.9266 23.0775 22.0924C21.9853 23.229 20.6434 24.1136 19.0517 24.7462C17.4599 25.379 15.5429 25.6954 13.2888 25.6954H9.1643V38.5196H0.473633V0.75H13.2888ZM12.0515 17.9329C13.2134 17.9329 14.1022 17.8158 14.7354 17.5814C15.3976 17.3119 15.9438 16.978 16.3736 16.5796C17.2682 15.7418 17.7155 14.6229 17.7155 13.2227C17.7155 11.8225 17.2682 10.7036 16.3736 9.86579C15.9438 9.4674 15.3976 9.14518 14.7354 8.91671C14.108 8.64722 13.2134 8.51833 12.0515 8.51833H9.17011V17.9388H12.0515V17.9329Z" fill="#A6A6A6"/>
</g>
<defs>
<clipPath id="clip0_136_2136">
<rect width="150" height="50.5" fill="white" transform="translate(0.473633 0.75)"/>
</clipPath>
</defs>
</svg>
