<svg width="32" height="32" viewBox="0 0 32 32" fill="none" xmlns="http://www.w3.org/2000/svg">
<g clip-path="url(#clip0_212_906)">
<path d="M31.3332 32H28.6665C27.5638 32 26.6665 31.1027 26.6665 30V26C26.6665 24.8973 27.5638 24 28.6665 24H31.3332C31.7012 24 31.9998 24.2987 31.9998 24.6667C31.9998 25.0347 31.7012 25.3333 31.3332 25.3333H28.6665C28.2998 25.3333 27.9998 25.632 27.9998 26V30C27.9998 30.368 28.2998 30.6667 28.6665 30.6667H30.6665V29.3333H29.9998C29.6318 29.3333 29.3332 29.0347 29.3332 28.6667C29.3332 28.2987 29.6318 28 29.9998 28H31.3332C31.7012 28 31.9998 28.2987 31.9998 28.6667V31.3333C31.9998 31.7013 31.7012 32 31.3332 32Z" fill="#FF0000"/>
<path d="M18.0002 32C17.6322 32 17.3335 31.7013 17.3335 31.3333V24.6667C17.3335 24.2987 17.6322 24 18.0002 24C18.3682 24 18.6668 24.2987 18.6668 24.6667V31.3333C18.6668 31.7013 18.3682 32 18.0002 32Z" fill="#FF0000"/>
<path d="M24.6667 31.9999C24.436 31.9999 24.2173 31.8813 24.0947 31.6759L21.3333 27.0733V31.3333C21.3333 31.7013 21.0347 31.9999 20.6667 31.9999C20.2987 31.9999 20 31.7013 20 31.3333V24.6666C20 24.3666 20.2 24.1039 20.488 24.0239C20.7853 23.9413 21.084 24.0666 21.2387 24.3239L24 28.9266V24.6666C24 24.2986 24.2987 23.9999 24.6667 23.9999C25.0347 23.9999 25.3333 24.2986 25.3333 24.6666V31.3333C25.3333 31.6333 25.1333 31.8959 24.8453 31.9759C24.7853 31.9919 24.7253 31.9999 24.6667 31.9999Z" fill="#FF0000"/>
<path d="M11.3332 32C10.9652 32 10.6665 31.7013 10.6665 31.3333V24.6667C10.6665 24.2987 10.9652 24 11.3332 24H13.3332C14.8038 24 15.9998 25.196 15.9998 26.6667C15.9998 28.1373 14.8038 29.3333 13.3332 29.3333H11.9998V31.3333C11.9998 31.7013 11.7012 32 11.3332 32ZM11.9998 28H13.3332C14.0692 28 14.6665 27.4013 14.6665 26.6667C14.6665 25.932 14.0692 25.3333 13.3332 25.3333H11.9998V28Z" fill="#FF0000"/>
<path d="M7.33333 29.3067C7.20267 29.3067 7.072 29.2693 6.95733 29.1907C2.6 26.204 0 21.2733 0 16C0 7.17733 7.17733 0 16 0C24.8227 0 32 7.17733 32 16C32 17.6773 31.7427 19.3173 31.2347 20.8733C31.1187 21.224 30.7427 21.416 30.3933 21.3C30.0427 21.1867 29.852 20.8093 29.9667 20.46C30.4307 19.0373 30.6667 17.5373 30.6667 16C30.6667 7.91333 24.0867 1.33333 16 1.33333C7.91333 1.33333 1.33333 7.91333 1.33333 16C1.33333 20.8333 3.71733 25.3533 7.70933 28.0893C8.01467 28.2973 8.09067 28.7133 7.88267 29.016C7.75333 29.2053 7.54533 29.3067 7.33333 29.3067Z" fill="#FF0000"/>
<path d="M9.132 21.9867C8.81733 21.9867 8.53733 21.7627 8.47867 21.4413C8.16 19.7293 8 17.8987 8 16C8 7.028 11.5147 0 16 0C20.4853 0 24 7.028 24 16C24 17.804 23.8533 19.552 23.5627 21.196C23.4987 21.56 23.1467 21.7987 22.7907 21.736C22.4293 21.672 22.1867 21.3267 22.2507 20.964C22.5267 19.396 22.6667 17.7253 22.6667 16C22.6667 8.05067 19.6133 1.33333 16 1.33333C12.3867 1.33333 9.33333 8.05067 9.33333 16C9.33333 17.8187 9.48667 19.5667 9.788 21.1987C9.856 21.56 9.616 21.908 9.25467 21.976C9.21333 21.984 9.172 21.9867 9.132 21.9867Z" fill="#FF0000"/>
<path d="M16.0002 21.88C15.6322 21.88 15.3335 21.5813 15.3335 21.2133V0.666667C15.3335 0.298667 15.6322 0 16.0002 0C16.3682 0 16.6668 0.298667 16.6668 0.666667V21.2133C16.6668 21.5827 16.3682 21.88 16.0002 21.88Z" fill="#FF0000"/>
<path d="M31.3333 16.6667H0.666667C0.298667 16.6667 0 16.368 0 16C0 15.632 0.298667 15.3334 0.666667 15.3334H31.3333C31.7013 15.3334 32 15.632 32 16C32 16.368 31.7013 16.6667 31.3333 16.6667Z" fill="#FF0000"/>
<path d="M29.3333 9.33333H2.66667C2.29867 9.33333 2 9.03467 2 8.66667C2 8.29867 2.29867 8 2.66667 8H29.3333C29.7013 8 30 8.29867 30 8.66667C30 9.03467 29.7013 9.33333 29.3333 9.33333Z" fill="#FF0000"/>
</g>
<defs>
<clipPath id="clip0_212_906">
<rect width="32" height="32" fill="white"/>
</clipPath>
</defs>
</svg>
