<svg width="32" height="26" viewBox="0 0 32 26" fill="none" xmlns="http://www.w3.org/2000/svg">
<path fill-rule="evenodd" clip-rule="evenodd" d="M31.7156 19.8993C31.0903 20.7296 29.559 21.3216 29.559 21.3216L18.1664 25.6294V22.4527L26.5505 19.3079C27.5019 18.9489 27.648 18.4418 26.8747 18.1753C26.1028 17.9082 24.705 17.9848 23.7529 18.3453L18.1664 20.4165V17.1195L18.4885 17.0048C18.4885 17.0048 20.1027 16.4034 22.3727 16.1386C24.6426 15.8754 27.4219 16.1745 29.6039 17.0453C32.0629 17.8633 32.3399 19.069 31.7156 19.8993ZM19.251 14.4897V6.36525C19.251 5.41114 19.0837 4.5329 18.2333 4.28416C17.582 4.06452 17.1779 4.70099 17.1779 5.65443V26L11.9658 24.2585V0C14.1819 0.432993 17.4106 1.45686 19.1462 2.07275C23.5603 3.66811 25.0569 5.65375 25.0569 10.1276C25.0569 14.4882 22.4999 16.1409 19.251 14.4897ZM2.40202 22.1206C-0.122423 21.3722 -0.542463 19.8129 0.608081 18.9146C1.67151 18.0852 3.48 17.4608 3.48 17.4608L10.9533 14.6634V17.8526L5.57535 19.8785C4.62537 20.2374 4.47927 20.7454 5.25131 21.0116C6.02383 21.2779 7.42229 21.2022 8.37373 20.8425L10.9533 19.8571V22.7103C10.7897 22.7409 10.6074 22.7715 10.4387 22.8013C7.85833 23.2452 5.11022 23.0601 2.40202 22.1206Z" fill="#8A8A8A"/>
</svg>
