<svg width="176" height="32" viewBox="0 0 176 32" fill="none" xmlns="http://www.w3.org/2000/svg">
<g clip-path="url(#clip0_179_5166)">
<path d="M15.0713 0.0671387V27.9374L21.3603 29.9367V6.56787C21.3603 5.46663 21.8497 4.73545 22.6344 4.98703C23.6605 5.27254 23.8598 6.28693 23.8598 7.37586V16.7088C27.7745 18.61 30.8566 16.7077 30.8566 11.6915C30.8566 6.56576 29.0496 4.28223 23.7326 2.44613C21.6358 1.74572 17.749 0.563435 15.0713 0.0671387Z" fill="#8A8A8A"/>
<path d="M22.5566 25.8623L32.6573 22.2548C33.8 21.8298 33.9747 21.2525 33.0497 20.9491C32.1106 20.64 30.4339 20.7284 29.2793 21.1446L22.5566 23.5241V19.7272L22.9415 19.5998C22.9415 19.5998 24.8875 18.908 27.6245 18.6102C30.3561 18.3097 33.7062 18.6494 36.3392 19.6451C39.3053 20.5906 39.6377 21.9696 38.8873 22.9293C38.126 23.8792 36.2802 24.5662 36.2802 24.5662L22.5566 29.5128M3.5484 25.4783C0.507162 24.6283 0.000113666 22.8321 1.38758 21.7945C2.66711 20.8469 4.84651 20.1337 4.84651 20.1337L13.8555 16.9106V20.579L7.37843 22.9084C6.23117 23.3203 6.05912 23.8998 6.98333 24.2028C7.92384 24.5182 9.59304 24.4335 10.741 24.0084L13.8555 22.8817V26.1566C13.6547 26.1903 13.4315 26.2244 13.2277 26.2592C10.1227 26.7764 6.81461 26.5639 3.5484 25.4783ZM37.2827 28.0359C37.2827 28.1289 37.2607 28.1894 37.2134 28.22C37.159 28.2569 37.0876 28.2755 36.9978 28.2755H36.5462V27.8132H37.0241C37.0919 27.8132 37.1424 27.8248 37.183 27.8406C37.2491 27.8731 37.2827 27.9383 37.2827 28.0361M37.6093 29.0965C37.5865 29.0899 37.5708 29.0674 37.5575 29.0292C37.5501 28.988 37.5463 28.9462 37.5459 28.9044L37.5385 28.6947C37.5352 28.5976 37.5168 28.522 37.4762 28.477C37.456 28.4415 37.4201 28.419 37.3858 28.3944C37.4306 28.3534 37.472 28.3114 37.5068 28.2653C37.5471 28.2001 37.5706 28.1117 37.5706 28.0173C37.5706 27.8248 37.4881 27.6878 37.3272 27.6121C37.247 27.5779 37.1424 27.5558 37.018 27.5558H36.2553V29.2019H36.5462V28.5317H36.9894C37.0721 28.5317 37.1275 28.5422 37.1682 28.5558C37.223 28.5909 37.2526 28.644 37.2563 28.7351L37.2705 28.9918C37.2749 29.0573 37.2792 29.0965 37.2827 29.1263L37.3045 29.183L37.3104 29.2019H37.6296V29.1081M35.6577 28.416C35.6577 28.0799 35.7831 27.7713 36.0123 27.5428C36.2447 27.3118 36.5588 27.1826 36.8859 27.1834C37.2118 27.1834 37.5172 27.3093 37.7462 27.5428C37.9774 27.7713 38.1022 28.0799 38.1022 28.416C38.1019 28.7396 37.9737 29.0499 37.7457 29.2788C37.5176 29.5077 37.2084 29.6364 36.8859 29.6368C36.5596 29.6379 36.2459 29.5103 36.0123 29.2817C35.8993 29.1679 35.8098 29.0329 35.7489 28.8843C35.6881 28.7358 35.6571 28.5766 35.6577 28.416ZM36.8859 29.8892C37.2791 29.8892 37.6442 29.7335 37.9226 29.458C38.1977 29.1774 38.3527 28.811 38.3527 28.416C38.3535 28.2217 38.3158 28.0292 38.242 27.8496C38.1682 27.67 38.0596 27.5069 37.9226 27.3696C37.7874 27.2316 37.626 27.1223 37.4479 27.048C37.2698 26.9737 37.0787 26.936 36.8859 26.9371C36.0698 26.9371 35.4098 27.5982 35.4098 28.416C35.4098 28.8109 35.562 29.1772 35.8369 29.458C36.1166 29.7343 36.4934 29.8892 36.8859 29.8892ZM59.7101 7.38116L52.1152 7.37782C52.1007 7.37753 52.0866 7.383 52.0761 7.39303C52.0655 7.40306 52.0593 7.41686 52.0588 7.43144V25.255C52.0588 25.2835 52.0839 25.3102 52.1152 25.3102H55.1933L55.2474 25.255L55.2509 9.36617L55.2691 9.3398L58.7936 9.33312C60.0768 9.33312 60.7817 10.6306 60.7817 12.9821C60.7817 15.3349 60.0768 16.6353 58.7936 16.6353L56.6724 16.6331C56.6406 16.6331 56.6191 16.6573 56.6191 16.6877V18.537C56.6191 18.5731 56.6406 18.595 56.6724 18.595H59.7101C60.7817 18.595 61.8313 18.0966 62.5887 17.2403C63.486 16.2241 63.9585 14.7567 63.9585 12.9983C63.9585 9.59085 62.2998 7.38116 59.7101 7.38116ZM68.9925 7.37782H65.9126C65.8775 7.37782 65.8525 7.40261 65.8525 7.43144V25.255C65.8525 25.2839 65.8775 25.3102 65.9126 25.3102H68.9927L69.0491 25.255V7.43144L68.9925 7.37782ZM82.4251 11.7163C82.4251 11.6847 82.3974 11.6609 82.3671 11.6609H76.8823C71.9641 11.6609 71.3352 15.2834 71.3352 18.467L71.3391 21.2203C71.3391 23.5896 72.8075 25.3101 74.8264 25.3101H77.8189L77.8731 25.255V23.4077C77.8731 23.3776 77.8477 23.3507 77.8189 23.3507L75.6814 23.3544C75.1891 23.3442 74.5259 23.1352 74.5259 21.4364V18.4637C74.5237 16.4884 74.7069 15.2254 75.1157 14.5069C75.5584 13.714 76.2554 13.6075 76.8823 13.6075H79.2201L79.2399 13.6354L79.2369 25.255C79.2369 25.2832 79.2607 25.3101 79.2935 25.3101H82.3678C82.3981 25.3101 82.4253 25.2832 82.4253 25.255M104.581 14.8365L103.064 14.7205C101.927 14.6222 101.081 13.9902 101.081 12.1201C101.081 9.93665 102.057 9.33927 103.36 9.33927H107.558L107.613 9.28495V7.43161L107.558 7.37835H107.47L102.922 7.3794C100.057 7.3794 98.0194 9.06783 98.0194 12.4329V12.5793C98.0194 15.2347 99.6476 17.1511 102.074 17.3373L103.584 17.4495C104.735 17.537 105.452 18.5702 105.452 20.1382V20.5792C105.452 21.5595 105.208 23.353 103.113 23.353H98.7513C98.7365 23.3534 98.7225 23.3596 98.7123 23.3703C98.702 23.3809 98.6963 23.3952 98.6964 23.41V25.2549L98.7513 25.3101H104.167C105.835 25.3101 108.629 24.6327 108.629 20.0757C108.629 18.4245 108.255 17.1232 107.498 16.1828C106.852 15.375 105.895 14.9379 104.581 14.8365ZM129.805 11.7163C129.805 11.7017 129.799 11.6876 129.789 11.6773C129.778 11.6669 129.764 11.661 129.75 11.6609H124.253C119.345 11.6609 118.71 15.2834 118.71 18.467L118.714 21.2203C118.714 23.5896 120.181 25.3101 122.21 25.3101H125.195L125.25 25.255V23.4077C125.25 23.3929 125.244 23.3787 125.234 23.3681C125.223 23.3575 125.209 23.3513 125.195 23.3507L123.056 23.3544C122.565 23.3442 121.908 23.1352 121.906 21.4364V18.4637C121.906 16.4884 122.091 15.2254 122.491 14.5069C122.934 13.714 123.635 13.6075 124.252 13.6075H126.6L126.623 13.6354L126.618 25.255C126.618 25.2832 126.643 25.3101 126.674 25.3101H129.752C129.783 25.3101 129.805 25.2832 129.805 25.255M117.431 11.6613H114.09L114.072 11.6407V9.39465C114.072 9.36476 114.049 9.33962 114.019 9.33962H110.941C110.91 9.33962 110.883 9.36476 110.883 9.39465V21.2219C110.883 23.591 112.354 25.3102 114.381 25.3102H116.585C116.616 25.3102 116.641 25.2835 116.641 25.255V23.4098C116.641 23.3796 116.616 23.3511 116.585 23.3511H115.232C114.885 23.3458 114.072 23.3282 114.069 21.5828V13.6205L114.088 13.6025C115.111 13.6078 117.431 13.6025 117.431 13.6025L117.485 13.5519V11.7165C117.485 11.702 117.48 11.688 117.469 11.6777C117.459 11.6674 117.445 11.6615 117.431 11.6613ZM138.92 11.6613H135.597L135.575 11.6407V9.39465L135.524 9.33962H132.441C132.426 9.33961 132.412 9.34535 132.401 9.35562C132.391 9.36588 132.384 9.37988 132.384 9.39465V21.2219C132.384 23.591 133.853 25.3102 135.878 25.3102H138.082C138.089 25.3102 138.096 25.3088 138.102 25.306C138.109 25.3032 138.115 25.2992 138.12 25.294C138.125 25.2889 138.129 25.2828 138.132 25.2761C138.135 25.2694 138.136 25.2623 138.136 25.255V23.4098C138.136 23.3796 138.114 23.3511 138.082 23.3511H136.729C136.381 23.3458 135.575 23.3282 135.575 21.5828V13.6205L135.593 13.6025C136.609 13.6078 138.92 13.6025 138.92 13.6025L138.975 13.5519V11.7165C138.974 11.702 138.968 11.6883 138.958 11.678C138.948 11.6678 138.934 11.6618 138.92 11.6613ZM144.008 11.6613H140.931C140.916 11.6615 140.902 11.6673 140.892 11.6776C140.882 11.6879 140.875 11.7018 140.875 11.7165V25.255L140.931 25.3102H144.008C144.015 25.3104 144.022 25.309 144.029 25.3063C144.036 25.3036 144.042 25.2996 144.048 25.2944C144.053 25.2893 144.057 25.2832 144.06 25.2764C144.063 25.2697 144.064 25.2624 144.064 25.255V11.7165C144.065 11.7091 144.063 11.7017 144.06 11.6948C144.057 11.688 144.053 11.6818 144.048 11.6766C144.043 11.6714 144.036 11.6674 144.029 11.6648C144.023 11.6621 144.015 11.661 144.008 11.6613ZM144.008 7.37782H140.931L140.875 7.43144V10.0198C140.875 10.0513 140.902 10.0743 140.931 10.0743H144.008C144.041 10.0743 144.064 10.0513 144.064 10.0198V7.43144C144.064 7.40261 144.041 7.37782 144.008 7.37782ZM165.296 11.6613H159.805C159.79 11.6615 159.777 11.6674 159.766 11.6777C159.756 11.688 159.751 11.702 159.751 11.7165L159.749 25.255L159.801 25.3102H162.883L162.935 25.255L162.931 13.6321L162.952 13.6096L165.294 13.6078C165.927 13.6078 166.621 13.7103 167.066 14.445C167.472 15.1088 167.657 16.276 167.657 18.1077C167.659 18.1868 167.654 25.255 167.654 25.255C167.654 25.2835 167.679 25.3102 167.709 25.3102H170.778C170.811 25.3102 170.836 25.2835 170.836 25.255V18.4655C170.836 15.2834 170.202 11.6613 165.296 11.6613ZM153.863 22.4546C153.378 23.2551 152.609 23.362 151.912 23.362C151.221 23.362 150.45 23.2551 149.96 22.4548C149.519 21.7346 149.315 20.4726 149.315 18.483V18.4672C149.315 16.119 149.602 14.7848 150.247 14.1495C150.632 13.7639 151.131 13.6075 151.912 13.6075C152.704 13.6075 153.198 13.7639 153.583 14.1495C154.222 14.7848 154.51 16.1246 154.51 18.483C154.51 20.4753 154.305 21.7381 153.863 22.4546ZM151.912 11.6615C146.772 11.6615 146.115 15.3008 146.115 18.4832C146.115 21.669 146.772 25.3203 151.912 25.3203C157.052 25.3203 157.708 21.669 157.708 18.4832C157.708 15.3008 157.052 11.6615 151.912 11.6615ZM84.1618 11.6613L84.1262 11.7149L88.6916 25.1295C88.6991 25.1596 88.6991 25.206 88.6895 25.2355L86.119 31.8774C86.1082 31.9087 86.1223 31.9319 86.1527 31.9319H88.8295C88.8465 31.9316 88.863 31.9262 88.877 31.9166C88.891 31.9069 88.9018 31.8933 88.9081 31.8774L96.9221 11.7149C96.9335 11.6827 96.9193 11.6613 96.8879 11.6613H93.9672C93.9509 11.662 93.9352 11.6674 93.9219 11.6769C93.9086 11.6865 93.8984 11.6997 93.8924 11.7149L90.4995 20.5299H90.4615L87.466 11.7151C87.459 11.6827 87.4247 11.6613 87.3942 11.6613M174.794 23.4604C174.794 23.5499 174.769 23.6081 174.722 23.6429C174.669 23.6807 174.597 23.6967 174.509 23.6967H174.058V23.2359H174.534C174.602 23.2359 174.654 23.2465 174.692 23.2644C174.757 23.2964 174.794 23.3607 174.794 23.4604ZM175.118 24.5202C175.097 24.5119 175.08 24.4894 175.066 24.452C175.06 24.4106 175.057 24.3689 175.057 24.3271L175.049 24.12C175.045 24.0186 175.027 23.9428 174.985 23.9013C174.965 23.865 174.929 23.8402 174.897 23.8147C174.939 23.7748 174.982 23.7342 175.016 23.687C175.058 23.6218 175.08 23.5369 175.08 23.4427C175.08 23.2465 174.997 23.1106 174.838 23.0353C174.755 23.0016 174.654 22.9791 174.528 22.9791H173.767V24.6246H174.058V23.9534H174.5C174.581 23.9534 174.64 23.965 174.677 23.9782C174.731 24.0133 174.761 24.0673 174.766 24.1575L174.781 24.4156C174.785 24.4792 174.788 24.5202 174.794 24.546L174.813 24.6047L174.819 24.6246H175.139V24.5291M173.167 23.8388C173.167 23.5016 173.293 23.1953 173.524 22.9636C173.756 22.7345 174.069 22.6061 174.394 22.606C174.721 22.606 175.026 22.7326 175.255 22.9636C175.487 23.1955 175.613 23.5016 175.613 23.8388C175.613 24.5126 175.065 25.0599 174.394 25.0599C174.069 25.0604 173.756 24.9327 173.524 24.7044C173.41 24.5911 173.32 24.4562 173.259 24.3076C173.198 24.159 173.167 23.9996 173.167 23.8388ZM174.394 25.3102C174.789 25.3102 175.155 25.1547 175.434 24.8809C175.707 24.6033 175.861 24.2289 175.861 23.8388C175.863 23.4468 175.709 23.0702 175.434 22.7917C175.298 22.654 175.136 22.5449 174.957 22.4708C174.779 22.3967 174.587 22.359 174.394 22.3599C174.201 22.3599 174.009 22.3982 173.83 22.4725C173.652 22.5469 173.489 22.6558 173.352 22.7932C173.216 22.9305 173.107 23.0935 173.033 23.273C172.959 23.4524 172.921 23.6446 172.922 23.8388C172.922 24.232 173.072 24.6017 173.348 24.8809C173.628 25.1556 174.003 25.3097 174.394 25.3102Z" fill="#8A8A8A"/>
</g>
<defs>
<clipPath id="clip0_179_5166">
<rect width="176" height="32" fill="white"/>
</clipPath>
</defs>
</svg>
