<svg width="36" height="36" viewBox="0 0 36 36" fill="none" xmlns="http://www.w3.org/2000/svg">
<path d="M15.1875 34.3125H11.8125C11.674 34.3125 11.5404 34.2614 11.4372 34.1691C11.3341 34.0767 11.2686 33.9495 11.2534 33.8119L10.9575 31.1496C10.1989 30.9411 9.46937 30.6387 8.78569 30.2496L6.69375 31.9224C6.58574 32.0088 6.44968 32.0524 6.31157 32.0448C6.17346 32.0373 6.04298 31.9791 5.94506 31.8814L3.55612 29.4947C3.45781 29.3967 3.39923 29.2657 3.39165 29.1271C3.38407 28.9885 3.42803 28.8519 3.51506 28.7437L5.18962 26.6496C4.80044 25.9659 4.49811 25.2363 4.28962 24.4777L1.62563 24.1841C1.48799 24.1689 1.36081 24.1034 1.26843 24.0003C1.17606 23.8971 1.12499 23.7635 1.125 23.625V20.25C1.12499 20.1115 1.17606 19.9779 1.26843 19.8747C1.36081 19.7716 1.48799 19.7061 1.62563 19.6909L4.28794 19.395C4.49642 18.6364 4.79875 17.9069 5.18794 17.2232L3.51506 15.1312C3.42866 15.0232 3.38508 14.8872 3.39266 14.7491C3.40023 14.611 3.45843 14.4805 3.55612 14.3826L5.94281 11.9959C6.04073 11.8982 6.17121 11.84 6.30932 11.8324C6.44743 11.8248 6.58349 11.8684 6.6915 11.9548L8.78569 13.6294C9.46937 13.2402 10.1989 12.9379 10.9575 12.7294L11.2534 10.0671C11.2677 9.92871 11.3328 9.80058 11.436 9.7074C11.5393 9.61422 11.6734 9.56259 11.8125 9.5625H15.1875C15.326 9.56249 15.4596 9.61356 15.5628 9.70593C15.6659 9.79831 15.7314 9.92549 15.7466 10.0631L16.0425 12.7254C16.8011 12.9339 17.5306 13.2363 18.2143 13.6254L20.3062 11.9526C20.4143 11.8662 20.5503 11.8226 20.6884 11.8302C20.8265 11.8377 20.957 11.8959 21.0549 11.9936L23.4416 14.3803C23.5393 14.4782 23.5975 14.6087 23.6051 14.7468C23.6127 14.8849 23.5691 15.021 23.4827 15.129L21.8081 17.2232C22.1973 17.9069 22.4996 18.6364 22.7081 19.395L25.3704 19.6909C25.5088 19.7052 25.6369 19.7703 25.7301 19.8735C25.8233 19.9768 25.8749 20.1109 25.875 20.25V23.625C25.875 23.7635 25.8239 23.8971 25.7316 24.0003C25.6392 24.1034 25.512 24.1689 25.3744 24.1841L22.7121 24.48C22.5036 25.2386 22.2012 25.9681 21.8121 26.6518L23.4849 28.7437C23.5713 28.8518 23.6149 28.9878 23.6073 29.1259C23.5998 29.264 23.5416 29.3945 23.4439 29.4924L21.0572 31.8791C20.9593 31.9768 20.8288 32.035 20.6907 32.0426C20.5526 32.0502 20.4165 32.0066 20.3085 31.9202L18.2143 30.2456C17.5306 30.6348 16.8011 30.9371 16.0425 31.1456L15.7466 33.8079C15.7323 33.9463 15.6672 34.0744 15.564 34.1676C15.4607 34.2608 15.3266 34.3124 15.1875 34.3125ZM12.3187 33.1875H14.6869L14.9681 30.6377C14.981 30.5218 15.0295 30.4129 15.107 30.3258C15.1845 30.2387 15.2871 30.1779 15.4007 30.1517C16.3082 29.9424 17.1744 29.5829 17.9634 29.088C18.0623 29.0262 18.1779 28.9966 18.2943 29.0034C18.4107 29.0101 18.5221 29.0529 18.6131 29.1257L20.6184 30.7299L22.293 29.0554L20.6887 27.0501C20.6159 26.959 20.5732 26.8476 20.5664 26.7312C20.5597 26.6148 20.5892 26.4992 20.6511 26.4004C21.1452 25.6112 21.5039 24.745 21.7125 23.8376C21.7387 23.7241 21.7996 23.6214 21.8866 23.5439C21.9737 23.4665 22.0827 23.4179 22.1985 23.4051L24.7483 23.1238V20.7563L22.1985 20.475C22.0827 20.4621 21.9737 20.4136 21.8866 20.3361C21.7996 20.2586 21.7387 20.156 21.7125 20.0424C21.5032 19.1349 21.1437 18.2687 20.6488 17.4797C20.587 17.3808 20.5574 17.2652 20.5642 17.1488C20.5709 17.0325 20.6137 16.921 20.6865 16.83L22.2907 14.8247L20.6162 13.1501L18.6109 14.7544C18.5198 14.8272 18.4084 14.87 18.292 14.8767C18.1756 14.8835 18.06 14.8539 17.9612 14.7921C17.1729 14.2962 16.3073 13.9355 15.4001 13.725C15.2866 13.6988 15.1839 13.6379 15.1064 13.5509C15.029 13.4638 14.9804 13.3548 14.9676 13.239L14.6841 10.6875H12.3187L12.0375 13.2373C12.0246 13.3532 11.9761 13.4621 11.8986 13.5492C11.8211 13.6363 11.7185 13.6971 11.6049 13.7233C10.6974 13.9326 9.8312 14.2921 9.04219 14.787C8.94334 14.8488 8.82773 14.8784 8.71134 14.8716C8.59495 14.8649 8.48353 14.8221 8.3925 14.7493L6.38719 13.1451L4.70756 14.8196L6.31181 16.8249C6.38465 16.916 6.4274 17.0274 6.43415 17.1438C6.4409 17.2602 6.41132 17.3758 6.3495 17.4746C5.85521 18.2638 5.49627 19.1299 5.2875 20.0374C5.26129 20.1509 5.20045 20.2536 5.11339 20.3311C5.02632 20.4085 4.91734 20.4571 4.8015 20.4699L2.25 20.7563V23.1244L4.79981 23.4056C4.91565 23.4185 5.02464 23.467 5.1117 23.5445C5.19876 23.622 5.2596 23.7246 5.28581 23.8382C5.4951 24.7457 5.85462 25.6119 6.3495 26.4009C6.41132 26.4998 6.4409 26.6154 6.43415 26.7318C6.4274 26.8482 6.38465 26.9596 6.31181 27.0506L4.70756 29.0554L6.38212 30.7299L8.38744 29.1257C8.47847 29.0529 8.58989 29.0101 8.70628 29.0034C8.82267 28.9966 8.93828 29.0262 9.03713 29.088C9.82625 29.5823 10.6924 29.9412 11.5999 30.15C11.7134 30.1762 11.8161 30.2371 11.8936 30.3241C11.971 30.4112 12.0196 30.5202 12.0324 30.636L12.3187 33.1875Z" fill="#FF0000"/>
<path d="M13.5 25.875C12.7212 25.875 11.96 25.6441 11.3124 25.2114C10.6649 24.7788 10.1602 24.1638 9.86223 23.4443C9.56421 22.7248 9.48623 21.9331 9.63816 21.1693C9.79009 20.4055 10.1651 19.7039 10.7158 19.1533C11.2664 18.6026 11.968 18.2276 12.7318 18.0757C13.4956 17.9237 14.2873 18.0017 15.0068 18.2997C15.7263 18.5977 16.3413 19.1024 16.7739 19.7499C17.2066 20.3975 17.4375 21.1587 17.4375 21.9375C17.4363 22.9814 17.0211 23.9823 16.2829 24.7204C15.5448 25.4586 14.5439 25.8738 13.5 25.875ZM13.5 19.125C12.9437 19.125 12.4 19.29 11.9375 19.599C11.4749 19.908 11.1145 20.3473 10.9016 20.8612C10.6887 21.3751 10.633 21.9406 10.7415 22.4862C10.8501 23.0318 11.1179 23.5329 11.5113 23.9262C11.9046 24.3196 12.4057 24.5874 12.9513 24.696C13.4969 24.8045 14.0624 24.7488 14.5763 24.5359C15.0902 24.323 15.5295 23.9626 15.8385 23.5C16.1476 23.0375 16.3125 22.4938 16.3125 21.9375C16.3116 21.1919 16.015 20.477 15.4878 19.9498C14.9605 19.4225 14.2456 19.1259 13.5 19.125Z" fill="#FF0000"/>
<path d="M30.769 18.5231C30.6414 18.5229 30.5176 18.4793 30.418 18.3994L28.8931 17.1799C28.2942 17.5116 27.6518 17.7577 26.9845 17.9111C26.8392 17.9446 26.6864 17.919 26.56 17.8399C26.4335 17.7608 26.3436 17.6346 26.3101 17.4893C26.2766 17.3439 26.3022 17.1911 26.3814 17.0647C26.4605 16.9382 26.5866 16.8483 26.732 16.8148C27.4093 16.6588 28.0557 16.3905 28.6445 16.0211C28.7433 15.9593 28.8589 15.9297 28.9753 15.9365C29.0917 15.9432 29.2031 15.986 29.2942 16.0588L30.728 17.2063L31.8344 16.0999L30.6869 14.6661C30.6141 14.575 30.5713 14.4636 30.5646 14.3472C30.5578 14.2308 30.5874 14.1152 30.6492 14.0164C31.0186 13.4276 31.2869 12.7812 31.4429 12.1039C31.4691 11.9903 31.53 11.8877 31.617 11.8102C31.7041 11.7327 31.8131 11.6842 31.9289 11.6713L33.7503 11.4699V9.90506L31.9267 9.70256C31.8108 9.6897 31.7018 9.64116 31.6148 9.56368C31.5277 9.48619 31.4669 9.38357 31.4407 9.27C31.2846 8.59269 31.0164 7.94626 30.647 7.3575C30.5852 7.25865 30.5556 7.14304 30.5623 7.02665C30.5691 6.91026 30.6118 6.79885 30.6847 6.70781L31.8322 5.274L30.7257 4.16812L29.2919 5.31562C29.2009 5.38846 29.0895 5.43121 28.9731 5.43796C28.8567 5.44471 28.7411 5.41513 28.6422 5.35331C28.0535 4.98392 27.407 4.71566 26.7297 4.55962C26.6162 4.53341 26.5135 4.47257 26.4361 4.38551C26.3586 4.29845 26.31 4.18947 26.2972 4.07363L26.0952 2.25H24.5304L24.3279 4.07363C24.315 4.18947 24.2665 4.29845 24.189 4.38551C24.1115 4.47257 24.0089 4.53341 23.8953 4.55962C23.218 4.71566 22.5716 4.98392 21.9828 5.35331C21.8839 5.41513 21.7683 5.44471 21.6519 5.43796C21.5356 5.43121 21.4241 5.38846 21.3331 5.31562L19.8999 4.16812L18.7934 5.27456L19.9409 6.70837C20.0138 6.79941 20.0565 6.91083 20.0633 7.02722C20.07 7.14361 20.0404 7.25922 19.9786 7.35806C19.6092 7.94683 19.3409 8.59325 19.1849 9.27056C19.1514 9.41594 19.0616 9.54206 18.9351 9.62118C18.8086 9.7003 18.6559 9.72593 18.5105 9.69244C18.3651 9.65895 18.239 9.56907 18.1599 9.44259C18.0807 9.31611 18.0551 9.16338 18.0886 9.018C18.242 8.35078 18.4881 7.70834 18.8199 7.10944L17.5998 5.58506C17.5138 5.477 17.4707 5.3411 17.4784 5.20324C17.4862 5.06539 17.5444 4.93521 17.642 4.8375L19.4628 3.01669C19.5607 2.91875 19.6912 2.86036 19.8295 2.85268C19.9677 2.845 20.1039 2.88857 20.212 2.97506L21.7364 4.19513C22.2174 3.92866 22.7269 3.71714 23.2552 3.56456L23.4712 1.62563C23.4863 1.48856 23.5513 1.36185 23.6538 1.26956C23.7562 1.17726 23.889 1.12582 24.0269 1.125H26.5987C26.737 1.12513 26.8705 1.17626 26.9736 1.26862C27.0766 1.36098 27.142 1.48808 27.1572 1.62563L27.3732 3.56456C27.9015 3.71714 28.411 3.92866 28.892 4.19513L30.4164 2.97506C30.5245 2.88857 30.6607 2.845 30.7989 2.85268C30.9372 2.86036 31.0677 2.91875 31.1656 3.01669L32.9836 4.8375C33.0815 4.93537 33.1399 5.06593 33.1476 5.20417C33.1553 5.34241 33.1117 5.47863 33.0252 5.58675L31.8052 7.11112C32.0716 7.59213 32.2831 8.10158 32.4357 8.62988L34.3747 8.84587C34.5122 8.8611 34.6393 8.92648 34.7317 9.02953C34.824 9.13258 34.8752 9.26606 34.8753 9.40444V11.9762C34.8752 12.1146 34.824 12.248 34.7317 12.3511C34.6393 12.4541 34.5122 12.5195 34.3747 12.5347L32.4357 12.7507C32.2831 13.279 32.0716 13.7885 31.8052 14.2695L33.0252 15.7939C33.1117 15.902 33.1553 16.0382 33.1476 16.1765C33.1399 16.3147 33.0815 16.4453 32.9836 16.5431L31.1628 18.3583C31.0583 18.4629 30.9168 18.5221 30.769 18.5231Z" fill="#FF0000"/>
<path d="M25.3124 13.8212C24.6926 13.8212 24.0867 13.6374 23.5714 13.2931C23.0561 12.9488 22.6544 12.4593 22.4172 11.8867C22.1801 11.3141 22.118 10.684 22.2389 10.0762C22.3598 9.46829 22.6583 8.90992 23.0965 8.47167C23.5348 8.03342 24.0932 7.73496 24.701 7.61405C25.3089 7.49313 25.939 7.55519 26.5116 7.79237C27.0842 8.02955 27.5736 8.43121 27.918 8.94654C28.2623 9.46187 28.4461 10.0677 28.4461 10.6875C28.4452 11.5184 28.1148 12.3149 27.5273 12.9024C26.9398 13.4899 26.1432 13.8203 25.3124 13.8212ZM25.3124 8.67883C24.9151 8.67883 24.5268 8.79664 24.1964 9.01736C23.8661 9.23808 23.6086 9.55179 23.4566 9.91883C23.3046 10.2859 23.2648 10.6897 23.3423 11.0794C23.4198 11.469 23.6111 11.827 23.892 12.1079C24.173 12.3888 24.5309 12.5801 24.9205 12.6576C25.3102 12.7351 25.7141 12.6953 26.0811 12.5433C26.4481 12.3913 26.7618 12.1338 26.9826 11.8035C27.2033 11.4732 27.3211 11.0848 27.3211 10.6875C27.3205 10.155 27.1087 9.6444 26.7321 9.26782C26.3555 8.89125 25.845 8.67943 25.3124 8.67883Z" fill="#FF0000"/>
</svg>
