<svg width="32" height="32" viewBox="0 0 32 32" fill="none" xmlns="http://www.w3.org/2000/svg">
<g clip-path="url(#clip0_212_824)">
<path d="M24.6813 3.60931C22.9624 1.89421 20.7741 0.726653 18.3925 0.253955C16.0108 -0.218743 13.5424 0.0246013 11.2989 0.953283C9.05539 1.88196 7.13721 3.45437 5.78641 5.47209C4.4356 7.48981 3.71271 9.86242 3.70895 12.2906V12.5855C2.9688 12.8486 2.32814 13.3342 1.87481 13.9757C1.42147 14.6172 1.17765 15.3832 1.17676 16.1687V21.5337C1.17793 22.5415 1.57882 23.5077 2.29148 24.2204C3.00413 24.933 3.97036 25.3339 4.9782 25.335H8.2797C8.4123 25.335 8.53948 25.2823 8.63325 25.1885C8.72702 25.0948 8.7797 24.9676 8.7797 24.835V12.8672C8.7797 12.7346 8.72702 12.6074 8.63325 12.5136C8.53948 12.4199 8.4123 12.3672 8.2797 12.3672H6.72026V12.2908C6.72026 7.17393 10.8831 3.01106 16 3.01106C21.1169 3.01106 25.2797 7.17393 25.2797 12.2908V12.3672H23.7203C23.5877 12.3672 23.4605 12.4199 23.3668 12.5136C23.273 12.6074 23.2203 12.7346 23.2203 12.8672V24.835C23.2203 24.9676 23.273 25.0948 23.3668 25.1885C23.4605 25.2823 23.5877 25.335 23.7203 25.335H26.2433C26.0868 26.548 25.4943 27.6627 24.5763 28.471C23.6583 29.2792 22.4776 29.7259 21.2545 29.7276H18.7223V28.955C18.7223 28.8224 18.6696 28.6952 18.5758 28.6014C18.482 28.5077 18.3549 28.455 18.2223 28.455H15.05C14.5799 28.455 14.1291 28.6417 13.7967 28.9741C13.4643 29.3066 13.2775 29.7574 13.2775 30.2275C13.2775 30.6976 13.4643 31.1484 13.7967 31.4808C14.1291 31.8133 14.5799 32 15.05 32H18.222C18.3546 32 18.4818 31.9473 18.5756 31.8535C18.6693 31.7598 18.722 31.6326 18.722 31.5V30.7276H21.2543C22.744 30.7257 24.1805 30.1733 25.2876 29.1765C26.3948 28.1798 27.0944 26.8089 27.2521 25.3276C28.2181 25.2677 29.125 24.8421 29.7883 24.1374C30.4517 23.4326 30.8217 22.5017 30.823 21.5338V16.1687C30.822 15.3833 30.5781 14.6173 30.1247 13.9759C29.6713 13.3344 29.0307 12.8489 28.2905 12.5859V12.2909C28.2928 10.6771 27.975 9.07879 27.3555 7.58859C26.736 6.09838 25.827 4.74586 24.6813 3.60931ZM17.7223 31H15.05C14.8452 30.9998 14.6489 30.9183 14.504 30.7735C14.3592 30.6287 14.2778 30.4324 14.2775 30.2276C14.2777 30.0227 14.3592 29.8264 14.504 29.6816C14.6488 29.5368 14.8452 29.4553 15.05 29.4551H17.722L17.7223 31ZM4.71476 24.3222C4.02084 24.2559 3.37649 23.9335 2.90729 23.418C2.43809 22.9024 2.17766 22.2306 2.17676 21.5336V16.1687C2.17765 15.4717 2.43807 14.7999 2.90727 14.2843C3.37647 13.7688 4.02083 13.4464 4.71476 13.3801V24.3222ZM7.7797 13.3672V24.335H5.71476V13.3672H7.7797ZM26.2852 24.335H24.2203V13.3672H26.2852V24.335ZM27.0218 12.3672H26.2797V12.2908C26.273 9.56885 25.187 6.96067 23.2599 5.03832C21.3328 3.11597 18.7219 2.03641 16 2.03641C13.278 2.03641 10.6672 3.11597 8.74006 5.03832C6.81297 6.96067 5.72697 9.56885 5.72026 12.2908V12.3672H4.9782C4.8877 12.3672 4.7982 12.3715 4.70945 12.3777V12.2908C4.7092 6.06506 9.77426 0.999996 16 0.999996C22.2258 0.999996 27.2908 6.06506 27.2908 12.2908V12.3777C27.2018 12.3715 27.1125 12.3672 27.0218 12.3672ZM29.8233 16.1687V21.5337C29.8224 22.2308 29.5619 22.9026 29.0927 23.4181C28.6235 23.9337 27.9791 24.256 27.2852 24.3224V13.3799C27.9792 13.4463 28.6235 13.7686 29.0928 14.2842C29.562 14.7998 29.8224 15.4716 29.8233 16.1687Z" fill="#FF0000"/>
</g>
<defs>
<clipPath id="clip0_212_824">
<rect width="32" height="32" fill="white"/>
</clipPath>
</defs>
</svg>
