<svg width="18" height="13" viewBox="0 0 18 13" fill="none" xmlns="http://www.w3.org/2000/svg">
<path d="M6.00006 10.2L2.50006 6.70001C2.40853 6.60737 2.29953 6.53382 2.17937 6.48362C2.05921 6.43342 1.93028 6.40757 1.80006 6.40757C1.66983 6.40757 1.5409 6.43342 1.42074 6.48362C1.30058 6.53382 1.19158 6.60737 1.10006 6.70001C1.00742 6.79153 0.933865 6.90053 0.883666 7.02069C0.833466 7.14085 0.807617 7.26978 0.807617 7.40001C0.807617 7.53023 0.833466 7.65916 0.883666 7.77932C0.933865 7.89948 1.00742 8.00848 1.10006 8.10001L5.29006 12.29C5.68006 12.68 6.31006 12.68 6.70006 12.29L17.3001 1.70001C17.3927 1.60848 17.4662 1.49948 17.5164 1.37932C17.5666 1.25916 17.5925 1.13023 17.5925 1.00001C17.5925 0.869783 17.5666 0.740853 17.5164 0.620692C17.4662 0.500532 17.3927 0.391531 17.3001 0.300008C17.2085 0.207368 17.0995 0.133816 16.9794 0.0836167C16.8592 0.0334172 16.7303 0.00756836 16.6001 0.00756836C16.4698 0.00756836 16.3409 0.0334172 16.2207 0.0836167C16.1006 0.133816 15.9916 0.207368 15.9001 0.300008L6.00006 10.2Z" fill="#F51C1C"/>
</svg>
