<svg width="119" height="40" viewBox="0 0 119 40" fill="none" xmlns="http://www.w3.org/2000/svg">
<g clip-path="url(#clip0_136_2114)">
<g clip-path="url(#clip1_136_2114)">
<g clip-path="url(#clip2_136_2114)">
<mask id="mask0_136_2114" style="mask-type:luminance" maskUnits="userSpaceOnUse" x="0" y="0" width="119" height="40">
<path d="M118.651 0.990479H0V39.3905H118.651V0.990479Z" fill="white"/>
</mask>
<g mask="url(#mask0_136_2114)">
<path d="M51.4157 38.8366H41.8042L47.816 1.66431H57.427L51.4157 38.8366Z" fill="#A6A6A6"/>
<path d="M86.2585 2.57304C84.3626 1.82088 81.3556 0.990479 77.6377 0.990479C68.1459 0.990479 61.4619 6.05196 61.4209 13.2883C61.342 18.6274 66.2065 21.5928 69.8446 23.373C73.5632 25.1921 74.8273 26.3794 74.8273 28.0008C74.7895 30.4912 71.8225 31.639 69.0552 31.639C65.2178 31.639 63.1617 31.0472 60.037 29.6617L58.7714 29.0678L57.4263 37.4122C59.6806 38.4391 63.834 39.3505 68.1459 39.3905C78.231 39.3905 84.7968 34.4074 84.8745 26.6958C84.9129 22.4642 82.3443 19.2218 76.8067 16.5722C73.445 14.8715 71.3862 13.7246 71.3862 11.9844C71.4256 10.4023 73.1275 8.78196 76.9222 8.78196C80.0469 8.70252 82.3428 9.4536 84.0819 10.2053L84.9513 10.6L86.2585 2.57304Z" fill="#A6A6A6"/>
<path d="M99.0324 25.6678C99.8239 23.5323 102.87 15.2673 102.87 15.2673C102.83 15.3466 103.66 13.0924 104.134 11.7084L104.806 14.9115C104.806 14.9115 106.626 23.8092 107.021 25.6678C105.519 25.6678 100.931 25.6678 99.0324 25.6678ZM110.897 1.66431H103.462C101.169 1.66431 99.4275 2.33607 98.4384 4.74855L84.1616 38.836H94.2468C94.2468 38.836 95.9071 34.2481 96.264 33.2599C97.3704 33.2599 107.181 33.2599 108.605 33.2599C108.88 34.5651 109.751 38.836 109.751 38.836H118.651L110.897 1.66431Z" fill="#A6A6A6"/>
<path d="M33.7755 1.66431L24.3626 27.0123L23.334 21.8713C21.5937 15.9395 16.136 9.49467 10.0454 6.29007L18.6673 38.7971H28.8312L43.9389 1.66431H33.7755Z" fill="#A6A6A6"/>
<path d="M15.6222 1.66431H0.158206L0 2.41539C12.0629 5.50011 20.052 12.9358 23.3344 21.8729L19.9726 4.78899C19.4192 2.41491 17.7184 1.74267 15.6222 1.66431Z" fill="#A6A6A6"/>
</g>
</g>
</g>
</g>
<defs>
<clipPath id="clip0_136_2114">
<rect width="119" height="39" fill="white" transform="translate(0 0.5)"/>
</clipPath>
<clipPath id="clip1_136_2114">
<rect width="119" height="39" fill="white" transform="translate(0 0.5)"/>
</clipPath>
<clipPath id="clip2_136_2114">
<rect width="119" height="39" fill="white" transform="translate(0 0.5)"/>
</clipPath>
</defs>
</svg>
