<svg width="26" height="26" viewBox="0 0 26 26" fill="none" xmlns="http://www.w3.org/2000/svg">
<path d="M11.7036 25.9466C9.70072 25.7548 7.67305 25.036 5.93124 23.9001C4.47167 22.9487 4.14229 22.557 4.14229 21.7763C4.14229 20.2079 5.86778 17.4604 8.82015 14.3291C10.4964 12.5502 12.8317 10.4663 13.084 10.5225C13.5754 10.6321 17.5008 14.459 18.9706 16.2608C21.2944 19.1089 22.3624 21.4417 21.8196 22.4815C21.4072 23.2719 18.847 24.817 16.9665 25.4105C15.4163 25.8998 13.3805 26.107 11.7036 25.9466ZM2.17082 20.1457C0.957841 18.2859 0.345005 16.455 0.0494656 13.8069C-0.0484431 12.9326 -0.0139938 12.4327 0.270969 10.6375C0.625435 8.40258 1.89976 5.81427 3.43185 4.22263C4.08397 3.5461 4.14199 3.52798 4.93735 3.79678C5.90132 4.12296 6.93178 4.83452 8.53035 6.27938L9.46411 7.12322L8.95341 7.7484C6.58789 10.6508 4.09122 14.7673 3.15142 17.3134C2.64072 18.6966 2.43523 20.0859 2.65583 20.6643C2.8039 21.0551 2.66792 20.9095 2.16931 20.1466L2.17082 20.1457ZM23.4608 20.4619C23.5808 19.8772 23.4291 18.8038 23.074 17.7208C22.305 15.3756 19.7336 11.0129 17.3727 8.0465L16.6293 7.11265L17.4337 6.37482C18.4835 5.41138 19.2124 4.83452 19.9993 4.34434C20.6197 3.95776 21.5066 3.61557 21.8879 3.61557C22.1227 3.61557 22.9504 4.47632 23.6183 5.41259C24.653 6.86228 25.4139 8.62305 25.7994 10.4533C26.0488 11.6372 26.0696 14.1681 25.8396 15.349C25.6493 16.3179 25.2504 17.5737 24.8636 18.4257C24.5705 19.0639 23.8482 20.3037 23.5309 20.7072C23.3677 20.9146 23.3677 20.9143 23.4584 20.4667L23.4608 20.4619ZM11.9182 3.17281C10.8285 2.62011 9.14772 2.02664 8.2194 1.86657C7.89425 1.8107 7.33913 1.77899 6.98648 1.79711C6.22013 1.83577 6.25428 1.7959 7.48297 1.21572C8.50436 0.733395 9.35653 0.449799 10.5139 0.206975C11.8148 -0.0663527 14.261 -0.0693729 15.5414 0.200331C16.9239 0.49178 18.5524 1.09733 19.4698 1.66211L19.743 1.82942L19.1175 1.79801C17.8737 1.73519 16.0612 2.23745 14.1151 3.18338C13.5282 3.46909 13.0181 3.69681 12.9807 3.69077C12.9435 3.68352 12.4651 3.45067 11.917 3.17281H11.9182Z" fill="#8A8A8A"/>
</svg>
