<svg width="110" height="32" viewBox="0 0 110 32" fill="none" xmlns="http://www.w3.org/2000/svg">
<g clip-path="url(#clip0_179_5169)">
<path d="M16.0218 12.8411C20.8444 16.5132 29.0496 25.5225 26.5583 28.0542C23.7242 30.5175 20.0444 32 16.0218 32C11.9992 32 8.27367 30.5175 5.48526 28.0542C2.97112 25.4997 11.1992 16.4904 15.9761 12.8639C15.9761 12.8411 16.0218 12.8411 16.0218 12.8411Z" fill="#8A8A8A"/>
<path d="M24.3642 2.34925C21.9186 0.866714 19.2445 0 16.0218 0C12.7991 0 10.1021 0.866714 7.65655 2.34925C7.61084 2.34925 7.61084 2.39487 7.61084 2.41768C7.61084 2.44048 7.65655 2.46329 7.67941 2.46329C10.7878 1.77904 15.4961 4.44761 15.9532 4.74412H16.0218C16.456 4.47042 21.1644 1.80185 24.2956 2.46329C24.3413 2.46329 24.3642 2.46329 24.3642 2.41768C24.3642 2.37206 24.4099 2.34925 24.3642 2.34925Z" fill="#8A8A8A"/>
<path d="M4.79973 4.58447C4.75401 4.58447 4.75401 4.63009 4.73116 4.63009C1.80561 7.52674 0 11.5638 0 15.9886C0 19.6151 1.23422 22.9907 3.26838 25.6821C3.26838 25.7277 3.3141 25.7277 3.33695 25.7277C3.38266 25.7277 3.38266 25.6821 3.33695 25.6593C2.12559 21.8275 8.38809 12.7042 11.6108 8.89524L11.6565 8.84962C11.6565 8.804 11.6565 8.804 11.6108 8.804C6.71962 3.94584 5.074 4.47043 4.79973 4.58447Z" fill="#8A8A8A"/>
<path d="M20.4105 8.7584L20.3647 8.80402C20.3647 8.80402 20.3647 8.84963 20.4105 8.84963C23.656 12.6814 29.8728 21.8047 28.6843 25.5909V25.6593C28.73 25.6593 28.7528 25.6593 28.7528 25.6137C30.787 22.9451 32.0212 19.5467 32.0212 15.9202C32.0212 11.4954 30.2156 7.48114 27.2672 4.56168C27.2215 4.51606 27.2215 4.51606 27.1986 4.51606C26.9472 4.47045 25.3245 3.94586 20.4105 8.7584Z" fill="#8A8A8A"/>
<path d="M55.2424 25.8417H51.9512L46.2601 18.0185L40.5461 25.8646H37.2549L44.5688 15.7605L37.8491 6.47753H41.1404L46.2601 13.5025L51.3798 6.47753H54.671L47.9057 15.7605L55.2424 25.8417ZM72.3843 20.345C72.3843 22.0328 71.8129 23.4013 70.693 24.3592C69.573 25.3172 67.9503 25.8417 65.8704 25.8417H56.8195V17.1974H52.4769L54.2825 14.7113H56.8195V6.47753H65.5276C67.4932 6.47753 69.0016 6.9565 70.0302 7.89164C71.0815 8.82678 71.6072 10.0584 71.6072 11.541C71.6072 13.3884 70.7615 14.8254 69.0702 15.7605C70.1673 16.171 70.9672 16.8097 71.5158 17.5623C72.11 18.3378 72.3843 19.2958 72.3843 20.345ZM59.745 14.7569H65.299C66.4189 14.7569 67.2646 14.506 67.836 14.0043C68.4074 13.5253 68.6817 12.7498 68.6817 11.7462C68.6817 10.9023 68.4074 10.2181 67.7903 9.73911C67.2189 9.26014 66.3732 9.00925 65.299 9.00925H59.745V14.7569ZM69.4131 20.2537C69.4131 19.2502 69.0931 18.4519 68.476 17.9729C67.8817 17.4483 66.9446 17.2202 65.7333 17.2202H59.7222V23.2644H65.6875C66.8532 23.2644 67.7903 22.9907 68.4302 22.5117C69.0931 21.9871 69.4131 21.2345 69.4131 20.2537ZM92.3603 16.171C92.3603 17.6536 92.1546 19.0677 91.7203 20.2765C91.2861 21.4854 90.6233 22.5574 89.7776 23.4925C88.8862 24.4276 87.8806 25.1347 86.7606 25.5909C85.6407 26.0698 84.3379 26.2751 82.898 26.2751C81.4809 26.2751 80.1553 26.0242 79.0354 25.5909C77.9154 25.1119 76.9098 24.4276 76.0184 23.4925C75.127 22.5574 74.487 21.4854 74.0528 20.2765C73.6185 19.0677 73.4128 17.6536 73.4128 16.171C73.4128 14.6885 73.6185 13.2744 74.0528 12.0656C74.487 10.8567 75.1499 9.73911 76.0184 8.80397C76.8641 7.86883 77.8697 7.20739 79.0354 6.70561C80.1553 6.27225 81.4809 6.02136 82.898 6.02136C84.3151 6.02136 85.595 6.27225 86.7606 6.70561C87.8806 7.13897 88.9319 7.86883 89.7776 8.80397C90.6233 9.73911 91.3089 10.8567 91.7203 12.0656C92.1317 13.2744 92.3603 14.6429 92.3603 16.171ZM76.4526 16.171C76.4526 18.4519 77.0469 20.2765 78.2354 21.5994C79.401 22.9223 80.9324 23.6065 82.898 23.6065C84.8407 23.6065 86.3949 22.9223 87.5606 21.5994C88.7262 20.2765 89.2976 18.4747 89.2976 16.171C89.2976 13.8674 88.7262 12.0427 87.5606 10.6971C86.3949 9.37418 84.8179 8.68993 82.898 8.68993C80.9781 8.68993 79.401 9.37418 78.2354 10.6971C77.0698 12.0656 76.4526 13.8674 76.4526 16.171ZM101.708 15.7605L108.474 6.47753H105.182L100.063 13.5025L94.943 6.47753H91.6518L98.4171 15.7605L91.0804 25.8417H94.3945L100.063 18.0185L105.777 25.8646H109.068L101.708 15.7605Z" fill="#8A8A8A"/>
</g>
<defs>
<clipPath id="clip0_179_5169">
<rect width="109.091" height="32" fill="white"/>
</clipPath>
</defs>
</svg>
