<svg width="24" height="24" viewBox="0 0 24 24" fill="none" xmlns="http://www.w3.org/2000/svg">
<path d="M23.4986 5.97173C23.2225 4.97076 22.4093 4.18245 21.3766 3.91492C19.5051 3.42871 12 3.42871 12 3.42871C12 3.42871 4.495 3.42871 2.6234 3.91492C1.59065 4.18245 0.777275 4.97076 0.501445 5.97173C0 7.78604 0 11.5716 0 11.5716C0 11.5716 0 15.3569 0.501445 17.1714C0.777275 18.1725 1.59065 18.9606 2.6233 19.2284C4.4949 19.7144 11.9999 19.7144 11.9999 19.7144C11.9999 19.7144 19.505 19.7144 21.3765 19.2284C22.4092 18.9607 23.2224 18.1725 23.4985 17.1715C24 15.357 24 11.5717 24 11.5717C24 11.5717 24 7.78614 23.4985 5.97183" fill="#727173"/>
<path d="M9.42871 14.5718L15.4287 11.5719L9.42871 8.57178V14.5718Z" fill="black"/>
</svg>
